<?xml version="1.0" encoding="UTF-8"?>
<svg version="1.1" xmlns="http://www.w3.org/2000/svg" width="2477" height="1524">
<path d="M0 0 C1.42077599 -0.00855011 1.42077599 -0.00855011 2.87025452 -0.01727295 C4.8696279 -0.02667727 6.86901645 -0.03323865 8.8684082 -0.03710938 C11.87024375 -0.04674686 14.87137349 -0.07778623 17.87304688 -0.109375 C32.59837017 -0.19138202 46.94125443 0.7232376 60.84765625 6.015625 C61.89977295 6.40355225 61.89977295 6.40355225 62.97314453 6.79931641 C77.63831362 12.3640588 89.65815252 21.48320106 100.97265625 32.203125 C101.85824219 33.02425781 102.74382812 33.84539062 103.65625 34.69140625 C114.75243678 45.31541487 123.3837806 57.88525278 130.97265625 71.203125 C131.35776367 71.87230957 131.74287109 72.54149414 132.13964844 73.23095703 C146.62417423 98.67938439 155.56603648 126.97988498 157.97265625 156.203125 C158.02760254 156.85394043 158.08254883 157.50475586 158.13916016 158.17529297 C165.61971222 249.64104024 121.4149731 343.72383781 63.54394531 412.58203125 C62.19800804 414.15878204 60.84351604 415.72759239 59.484375 417.29296875 C57.0854551 420.07243271 54.77251726 422.90402803 52.47265625 425.765625 C48.41439857 430.75480918 44.12750059 435.47983115 39.74609375 440.18359375 C37.72924812 442.35426371 35.78718198 444.57669621 33.85766602 446.82519531 C29.77302384 451.49920423 25.43252088 455.88730398 21.0390625 460.26953125 C19.7839109 461.52611794 19.7839109 461.52611794 18.50340271 462.80809021 C16.74397521 464.56819435 14.98329972 466.32705177 13.22143555 468.0847168 C10.54296214 470.75783472 7.86986752 473.43624751 5.19726562 476.11523438 C3.4781851 477.83365403 1.75879436 479.55176342 0.0390625 481.26953125 C-0.75076523 482.06138321 -1.54059296 482.85323517 -2.35435486 483.66908264 C-7.08697832 488.38201528 -11.9577146 492.85649542 -17.02734375 497.203125 C-18.69786837 498.69882727 -20.36515207 500.19816766 -22.02734375 501.703125 C-22.86265625 502.45464844 -23.69796875 503.20617187 -24.55859375 503.98046875 C-26.16587855 505.4275337 -27.77020643 506.87789193 -29.37109375 508.33203125 C-30.08265625 508.97011719 -30.79421875 509.60820313 -31.52734375 510.265625 C-32.4709375 511.11833984 -32.4709375 511.11833984 -33.43359375 511.98828125 C-35.02734375 513.203125 -35.02734375 513.203125 -37.02734375 513.203125 C-34.0592065 518.7756572 -30.57654738 523.49506127 -26.52734375 528.328125 C-25.91004395 529.06949707 -25.29274414 529.81086914 -24.65673828 530.57470703 C-1.77499296 557.86017547 27.70219745 585.53628104 64.97265625 589.203125 C97.7134538 590.68977156 127.11086154 568.49642129 150.09765625 547.765625 C159.48713547 539.00381901 168.67458506 530.01306009 176.97265625 520.203125 C177.94363581 519.09358254 178.91648461 517.98567464 179.890625 516.87890625 C186.70223036 509.12299707 193.2370039 501.21908862 199.53613281 493.04296875 C200.99887038 491.16955096 202.49314886 489.32564927 203.99609375 487.484375 C212.02099935 477.55467801 219.21042226 467.13151499 226.28515625 456.515625 C226.74910797 455.82101166 227.21305969 455.12639832 227.69107056 454.41073608 C236.38898466 441.36107288 244.57413732 428.06651026 252.03515625 414.265625 C252.80073853 412.85398071 252.80073853 412.85398071 253.58178711 411.41381836 C257.50862469 404.13705433 261.30692432 396.81088941 264.91699219 389.37207031 C265.66254169 387.8402799 266.41374118 386.31123327 267.16894531 384.78417969 C275.52074762 367.89582888 282.81868241 350.62261414 289.97265625 333.203125 C292.70053087 335.59824745 293.98417129 338.00821723 295.453125 341.30859375 C296.11538086 342.78295898 296.11538086 342.78295898 296.79101562 344.28710938 C297.24283203 345.31126953 297.69464844 346.33542969 298.16015625 347.390625 C298.62357422 348.42638672 299.08699219 349.46214844 299.56445312 350.52929688 C300.70667341 353.08457318 301.84246148 355.64251262 302.97265625 358.203125 C305.83587263 352.62872142 308.37683004 347.01231695 310.72265625 341.203125 C311.19638672 340.04103516 311.19638672 340.04103516 311.6796875 338.85546875 C312.44682377 336.9724979 313.21014874 335.08797502 313.97265625 333.203125 C317.35013546 335.95079532 318.78801432 339.69654987 320.52734375 343.5703125 C320.86502274 344.30830078 321.20270172 345.04628906 321.5506134 345.80664062 C322.656216 348.22752772 323.75203828 350.65270484 324.84765625 353.078125 C325.61644617 354.76731622 326.38573812 356.45627903 327.15551758 358.14501953 C329.43826582 363.15972252 331.70785965 368.18029259 333.97265625 373.203125 C334.28688538 373.89986328 334.6011145 374.59660156 334.92486572 375.31445312 C337.35983066 380.71635846 339.78961792 386.12051991 342.19726562 391.53466797 C344.72707488 397.22194144 347.2820926 402.89319797 349.90956116 408.53591919 C351.24012118 411.39470892 352.56114117 414.25786716 353.88198853 417.12115479 C354.51980598 418.49628302 355.16244249 419.8691875 355.81015015 421.23968506 C356.70730524 423.13873999 357.58759886 425.04480941 358.46484375 426.953125 C358.9738623 428.04109375 359.48288086 429.1290625 360.00732422 430.25 C361.42122561 434.57537969 360.5843797 436.86276827 358.73608398 440.91259766 C358.21473877 441.8876123 357.69339355 442.86262695 357.15625 443.8671875 C356.56497314 444.97586182 355.97369629 446.08453613 355.36450195 447.22680664 C354.713716 448.42760544 354.06224924 449.62803548 353.41015625 450.828125 C353.07930023 451.44138641 352.74844421 452.05464783 352.40756226 452.68649292 C337.78534133 479.76955644 321.64054883 506.0023285 303.97265625 531.203125 C303.43495605 531.97043945 302.89725586 532.73775391 302.34326172 533.52832031 C295.07015959 543.85975423 287.41868363 553.78554111 279.36083984 563.51513672 C277.53160111 565.7394344 275.75201605 568.00132437 273.97265625 570.265625 C258.34749161 589.7970808 241.0781565 609.28059666 221.97265625 625.48046875 C219.53876494 627.57684779 217.201312 629.7670988 214.84765625 631.953125 C209.03722029 637.24993126 202.92496514 642.08425848 196.69287109 646.87255859 C195.09344491 648.10969636 193.51081677 649.36846815 191.9296875 650.62890625 C177.83501171 661.76971726 162.73460207 671.79790369 146.85253906 680.20605469 C145.61037132 680.86488755 144.37260007 681.53208494 143.13964844 682.20800781 C93.8947487 709.1810809 31.42704011 712.50495244 -22.02734375 697.203125 C-27.50043138 695.52098827 -32.77896808 693.48514461 -38.02734375 691.203125 C-38.70667969 690.91211914 -39.38601563 690.62111328 -40.0859375 690.32128906 C-60.6590835 681.40311339 -79.32338538 668.76095979 -95.66015625 653.41796875 C-97.69081528 651.51799569 -99.76575493 649.73066051 -101.90234375 647.953125 C-112.04345352 639.09780011 -120.6152329 628.56196177 -128.74072266 617.87939453 C-129.96604686 616.28298543 -131.22061884 614.7091522 -132.4765625 613.13671875 C-184.05980047 548.09698392 -213.08762746 464.09317762 -222.33984375 379.765625 C-222.42133667 379.01310455 -222.50282959 378.26058411 -222.58679199 377.48526001 C-232.76010077 281.86955031 -215.85765129 175.51170243 -153.15234375 92.203125 C-151.78413935 90.53087517 -150.40858738 88.86462096 -149.02734375 87.203125 C-148.19203125 86.1821875 -147.35671875 85.16125 -146.49609375 84.109375 C-135.0181331 70.26836421 -122.34794795 57.11406153 -108.02734375 46.203125 C-106.76713335 45.20450631 -105.50811294 44.20438489 -104.25 43.203125 C-89.25887849 31.3769528 -73.41788048 21.13173226 -56.02734375 13.203125 C-55.36589355 12.89536133 -54.70444336 12.58759766 -54.02294922 12.27050781 C-36.96040781 4.41821057 -18.79378204 0.08977329 0 0 Z M-54.02734375 135.203125 C-54.78789063 135.82960938 -55.5484375 136.45609375 -56.33203125 137.1015625 C-66.36195786 145.60444146 -73.84054945 156.28344864 -81.02734375 167.203125 C-81.61128906 168.07710937 -82.19523437 168.95109375 -82.796875 169.8515625 C-115.22554358 221.64629779 -120.09584899 296.45057207 -107.77441406 354.97265625 C-103.10104798 375.18114644 -96.35044147 394.82223326 -89.02734375 414.203125 C-88.44108013 415.76680485 -87.85510869 417.3305943 -87.26953125 418.89453125 C-86.85960937 419.98636719 -86.4496875 421.07820313 -86.02734375 422.203125 C-74.4173582 417.25690903 -64.19197944 403.52375121 -55.4074707 394.71362305 C-53.20442265 392.50517837 -50.99602906 390.30217949 -48.78710938 388.09960938 C-47.3603561 386.67219576 -45.9339128 385.24447223 -44.5078125 383.81640625 C-43.85975143 383.17036942 -43.21169037 382.52433258 -42.54399109 381.85871887 C-38.17494411 377.46750998 -34.06013493 372.90376515 -30.02734375 368.203125 C-29.57839249 367.68704681 -29.12944122 367.17096863 -28.66688538 366.63925171 C-12.66215781 348.23050408 1.48667307 328.73868577 12.97265625 307.203125 C13.31538574 306.56294434 13.65811523 305.92276367 14.01123047 305.26318359 C34.57525751 266.48783534 47.67365391 216.82166883 35.97265625 173.203125 C35.77397949 172.4611084 35.57530273 171.7190918 35.37060547 170.95458984 C30.12347538 152.17104326 20.81939846 135.01934209 3.97265625 124.203125 C-18.93591063 111.85739219 -34.98678597 118.92753271 -54.02734375 135.203125 Z " fill="#192C43" transform="translate(696.02734375,280.796875)"/>
<path d="M0 0 C3.99719592 0.79943918 6.10404416 1.38405464 9.51953125 3.22265625 C10.36870117 3.67471436 11.21787109 4.12677246 12.09277344 4.5925293 C12.9902832 5.07761963 13.88779297 5.56270996 14.8125 6.0625 C16.70905114 7.0714116 18.60619202 8.07921534 20.50390625 9.0859375 C21.90600342 9.83182129 21.90600342 9.83182129 23.33642578 10.59277344 C26.95204264 12.50298568 30.59175257 14.36046512 34.25 16.1875 C34.88429932 16.50460937 35.51859863 16.82171875 36.17211914 17.1484375 C39.54195621 18.81986983 42.93054064 20.44240746 46.34375 22.0234375 C47.07948242 22.36479736 47.81521484 22.70615723 48.57324219 23.05786133 C49.95135141 23.69389985 51.33193352 24.32463026 52.71582031 24.94799805 C54.01573117 25.54587267 55.30191168 26.1745849 56.57192111 26.83359808 C59.05014321 28.08432073 59.05014321 28.08432073 61.99693608 29.01514965 C65.77968126 30.59340936 68.15945982 32.01898402 71 35 C73.35552929 41.45684418 72.56390127 48.90485175 72.4430542 55.65892029 C72.44828685 57.81812596 72.45879339 59.97732423 72.47412419 62.13648182 C72.50098821 68.07326213 72.45292328 74.00745014 72.39278746 79.94389999 C72.34102172 86.34397266 72.3584983 92.74389617 72.36761475 99.14411926 C72.37391066 110.23389899 72.33664289 121.32281894 72.26876068 132.41238213 C72.19775101 144.0426783 72.15156856 155.6726369 72.13852692 167.30314827 C72.13770204 168.02634011 72.13687717 168.74953195 72.13602729 169.4946387 C72.13196728 173.16737913 72.12835068 176.84011985 72.12490478 180.5128609 C72.09970107 206.5256494 72.01885689 232.53799698 71.90527344 258.55053711 C71.79505754 283.82102107 71.71005577 309.09138438 71.65917969 334.36206055 C71.65681222 335.5305253 71.65681222 335.5305253 71.65439692 336.7225954 C71.63857465 344.54541193 71.62326489 352.3682294 71.60833061 360.19104767 C71.57789621 376.12696974 71.54404118 392.06288395 71.50811768 407.99879456 C71.5064702 408.73149874 71.50482272 409.46420293 71.50312531 410.21911028 C71.39272089 459.14626955 71.19983883 508.07313378 71 557 C47.57 557 24.14 557 0 557 C0 373.19 0 189.38 0 0 Z " fill="#EFA155" transform="translate(1098,280)"/>
<path d="M0 0 C-0.69738281 0.59425781 -1.39476562 1.18851563 -2.11328125 1.80078125 C-6.19312357 5.89209589 -8.53875011 11.11497987 -11.1875 16.1875 C-12.35078379 18.37541421 -13.51485169 20.56291169 -14.6796875 22.75 C-15.2478418 23.8225 -15.81599609 24.895 -16.40136719 26 C-18.49161267 29.92256207 -20.64135622 33.80930193 -22.8125 37.6875 C-27.10633553 45.38317626 -31.36972402 53.09545471 -35.625 60.8125 C-36.31485768 62.06339648 -37.00471772 63.31429165 -37.69458008 64.56518555 C-39.09759363 67.10931979 -40.50048483 69.65352147 -41.90332031 72.19775391 C-44.9364974 77.69861537 -47.97130763 83.19857571 -51.00604248 88.69857788 C-52.67076642 91.71567918 -54.33537732 94.73284284 -56 97.75 C-56.66666613 98.95833363 -57.3333328 100.16666696 -58 101.375 C-58.33 101.973125 -58.66 102.57125 -59 103.1875 C-62.00000001 108.62500003 -62.00000001 108.62500003 -62.99987793 110.43727112 C-63.6669601 111.64636264 -64.33403366 112.85545892 -65.00109863 114.06455994 C-66.6613377 117.07383183 -68.32172333 120.08302267 -69.98242188 123.09204102 C-73.0590021 128.66685245 -76.1342378 134.24239118 -79.2043457 139.82077026 C-80.62720337 142.40588909 -82.05087911 144.99055698 -83.47460938 147.57519531 C-84.45782041 149.36089384 -85.43987373 151.14722966 -86.421875 152.93359375 C-89.71213886 158.90583739 -93.03410592 164.85881883 -96.40625 170.78515625 C-96.92257996 171.69569008 -96.92257996 171.69569008 -97.44934082 172.62461853 C-99.88112672 176.88112672 -99.88112672 176.88112672 -101 178 C-103.78142989 178.16249966 -106.53989847 178.26054283 -109.32421875 178.31640625 C-110.19789093 178.33723267 -111.07156311 178.35805908 -111.97171021 178.3795166 C-114.87687737 178.44631302 -117.78213746 178.50486834 -120.6875 178.5625 C-121.67632172 178.58367889 -122.66514343 178.60485779 -123.68392944 178.62667847 C-146.45534658 179.11040711 -169.22472921 179.1030125 -192 179 C-192.33100708 179.98601196 -192.33100708 179.98601196 -192.66870117 180.99194336 C-194.45111029 185.01927927 -196.83606262 188.48936857 -199.30078125 192.12890625 C-200.11125916 193.33836159 -200.11125916 193.33836159 -200.93811035 194.57225037 C-202.11102955 196.32171083 -203.28600673 198.06979288 -204.46279907 199.81665039 C-207.63027098 204.51870864 -210.78307789 209.23058789 -213.9375 213.94140625 C-214.59442337 214.9216275 -215.25134674 215.90184875 -215.92817688 216.91177368 C-223.91466785 228.83930155 -231.7963107 240.83590675 -239.67398071 252.83547974 C-242.98743514 257.88235681 -246.30796718 262.92429046 -249.64654541 267.95458984 C-250.84987999 269.77313092 -252.04183572 271.5985714 -253.23193359 273.42578125 C-253.8398877 274.33714844 -254.4478418 275.24851562 -255.07421875 276.1875 C-255.55850342 276.92355469 -256.04278809 277.65960938 -256.54174805 278.41796875 C-258.29897792 280.32435576 -259.51419224 280.4776384 -262 281 C-264.88595049 274.0373123 -267.40360863 267.01351406 -269.72265625 259.84375 C-270.06502319 258.79449341 -270.40739014 257.74523682 -270.76013184 256.66418457 C-271.86432449 253.27721994 -272.96366467 249.88870613 -274.0625 246.5 C-274.82199001 244.16399934 -275.58167546 241.82806221 -276.34155273 239.4921875 C-277.48192522 235.98556834 -278.62174689 232.47877478 -279.75990295 228.97143555 C-281.74031192 222.86861397 -283.72864313 216.76857271 -285.73414612 210.6739502 C-286.77663354 207.50541216 -287.81484997 204.33548529 -288.8522644 201.1652832 C-289.32276039 199.73089006 -289.79516892 198.29712273 -290.26956177 196.86401367 C-290.91556414 194.91111637 -291.55371788 192.9556279 -292.19140625 191 C-292.54404541 189.9275 -292.89668457 188.855 -293.26000977 187.75 C-294 185 -294 185 -294 181 C-327 181 -360 181 -394 181 C-390.87351691 177.87351691 -387.93492217 176.3853417 -383.984375 174.62109375 C-383.27381958 174.2971312 -382.56326416 173.97316864 -381.83117676 173.63938904 C-379.47351224 172.56597397 -377.11175638 171.50187794 -374.75 170.4375 C-373.08526905 169.68125575 -371.42088678 168.9242435 -369.75683594 168.16650391 C-367.15412508 166.98150868 -364.55117003 165.79707966 -361.94708252 164.6151123 C-353.51073642 160.78545647 -345.10114844 156.89893321 -336.69378662 153.00616455 C-324.02618169 147.14266341 -311.33994797 141.32257523 -298.625 135.5625 C-284.54764549 129.18490922 -270.52248077 122.69766916 -256.50488281 116.18994141 C-244.3824373 110.56273283 -232.24618201 104.96651223 -220.09887695 99.39318848 C-211.45454291 95.42699189 -202.81283855 91.45533557 -194.1796875 87.46484375 C-193.3609314 87.0864032 -192.54217529 86.70796265 -191.6986084 86.3180542 C-190.04308614 85.55280554 -188.38756856 84.78754674 -186.73205566 84.02227783 C-174.0487651 78.15969453 -161.35258741 72.3283011 -148.625 66.5625 C-134.54764549 60.18490922 -120.52248077 53.69766916 -106.50488281 47.18994141 C-95.13960644 41.91420883 -83.76317863 36.66360398 -72.375 31.4375 C-69.3632255 30.05480892 -66.3515348 28.67193535 -63.33984375 27.2890625 C-62.21492271 26.77254372 -62.21492271 26.77254372 -61.067276 26.24559021 C-52.54498193 22.33225906 -44.02320975 18.41781362 -35.50543213 14.49465942 C-33.82180086 13.71959199 -32.13785183 12.94521437 -30.45355225 12.17160034 C-28.10228662 11.09152279 -25.7520714 10.00920017 -23.40234375 8.92578125 C-22.66999512 8.58898849 -21.93764648 8.25219574 -21.18310547 7.90519714 C-15.79184732 5.40984527 -10.5197724 2.73808363 -5.28735352 -0.07739258 C-3 -1 -3 -1 0 0 Z " fill="#F2363E" transform="translate(562,234)"/>
<path d="M0 0 C34.47852802 -0.90999048 61.54299478 7.88076631 87 32 C87.88558594 32.82113281 88.77117187 33.64226562 89.68359375 34.48828125 C100.77978053 45.11228987 109.41112435 57.68212778 117 71 C117.38510742 71.66918457 117.77021484 72.33836914 118.16699219 73.02783203 C132.65151798 98.47625939 141.59338023 126.77675998 144 156 C144.05494629 156.65081543 144.10989258 157.30163086 144.16650391 157.97216797 C151.64705597 249.43791524 107.44231685 343.52071281 49.57128906 412.37890625 C48.22535179 413.95565704 46.87085979 415.52446739 45.51171875 417.08984375 C43.11279885 419.86930771 40.79986101 422.70090303 38.5 425.5625 C34.44174232 430.55168418 30.15484434 435.27670615 25.7734375 439.98046875 C23.75659187 442.15113871 21.81452573 444.37357121 19.88500977 446.62207031 C15.80036759 451.29607923 11.45986463 455.68417898 7.06640625 460.06640625 C5.81125465 461.32299294 5.81125465 461.32299294 4.53074646 462.60496521 C2.77131896 464.36506935 1.01064347 466.12392677 -0.7512207 467.8815918 C-3.42969411 470.55470972 -6.10278873 473.23312251 -8.77539062 475.91210938 C-10.49447115 477.63052903 -12.21386189 479.34863842 -13.93359375 481.06640625 C-14.72342148 481.85825821 -15.51324921 482.65011017 -16.32701111 483.46595764 C-21.05963457 488.17889028 -25.93037085 492.65337042 -31 497 C-32.67052462 498.49570227 -34.33780832 499.99504266 -36 501.5 C-37.25296875 502.62728516 -37.25296875 502.62728516 -38.53125 503.77734375 C-40.1385348 505.2244087 -41.74286268 506.67476693 -43.34375 508.12890625 C-44.0553125 508.76699219 -44.766875 509.40507813 -45.5 510.0625 C-46.44359375 510.91521484 -46.44359375 510.91521484 -47.40625 511.78515625 C-49 513 -49 513 -51 513 C-48.03186275 518.5725322 -44.54920363 523.29193627 -40.5 528.125 C-39.8827002 528.86637207 -39.26540039 529.60774414 -38.62939453 530.37158203 C-13.43474824 560.4150825 14.59637701 582.53213308 54 590 C54 590.33 54 590.66 54 591 C38.81837363 591.43630185 24.53699047 591.75727693 10 587 C8.88109375 586.63777344 7.7621875 586.27554688 6.609375 585.90234375 C-20.28602387 576.32004584 -44.0043973 556.23112963 -61.58203125 534.04296875 C-63.44381241 531.69995175 -65.33441063 529.40143759 -67.26171875 527.11328125 C-68.38298072 525.76316052 -69.50407566 524.41290106 -70.625 523.0625 C-71.4437561 522.1039209 -71.4437561 522.1039209 -72.27905273 521.12597656 C-73.7890625 519.28515625 -73.7890625 519.28515625 -76 516 C-75.66413417 513.05601207 -75.21635949 512.20438703 -73.0234375 510.1328125 C-72.14945313 509.47023438 -71.27546875 508.80765625 -70.375 508.125 C-64.79740666 503.73273614 -59.62991181 499.02092823 -54.47998047 494.13720703 C-51.47654676 491.2947151 -48.44936795 488.50839572 -45.30957031 485.81665039 C-40.81220173 481.8912981 -36.5851412 477.72938706 -32.37109375 473.50390625 C-31.57776138 472.71153061 -30.78442902 471.91915497 -29.96705627 471.10276794 C-28.30110919 469.43749717 -26.63640744 467.77097971 -24.97290039 466.10327148 C-22.44463866 463.56965378 -19.91108339 461.04141833 -17.37695312 458.51367188 C-15.7496793 456.88573717 -14.12271575 455.25749225 -12.49609375 453.62890625 C-11.37393715 452.509786 -11.37393715 452.509786 -10.22911072 451.36805725 C-5.61912237 446.73772867 -1.25065351 441.9608805 3 437 C4.02206782 435.83213323 5.04530461 434.6652872 6.0703125 433.5 C28.51416194 407.83532896 49.00838403 380.61175255 66 351 C66.37511719 350.3512793 66.75023437 349.70255859 67.13671875 349.03417969 C96.27142805 298.43561063 119.19126891 241.59881709 119.18530273 182.42626953 C119.18747039 180.03269134 119.20562903 177.6395897 119.22460938 175.24609375 C119.28611468 159.20156693 117.61003133 143.81513181 113.875 128.1875 C113.72449188 127.55068298 113.57398376 126.91386597 113.41891479 126.25775146 C109.1986356 108.5350557 102.75503136 91.9629731 94 76 C93.61585938 75.29891113 93.23171875 74.59782227 92.8359375 73.87548828 C85.07593254 59.87931805 76.00328106 47.64830098 65 36 C64.23171875 35.16726563 63.4634375 34.33453125 62.671875 33.4765625 C47.6456379 17.72324942 25.55422628 5.7209182 3.890625 2.45703125 C2 2 2 2 0 0 Z " fill="#C4C5C6" transform="translate(710,281)"/>
<path d="M0 0 C-0.69738281 0.59425781 -1.39476562 1.18851563 -2.11328125 1.80078125 C-6.19312357 5.89209589 -8.53875011 11.11497987 -11.1875 16.1875 C-12.35078379 18.37541421 -13.51485169 20.56291169 -14.6796875 22.75 C-15.2478418 23.8225 -15.81599609 24.895 -16.40136719 26 C-18.49161267 29.92256207 -20.64135622 33.80930193 -22.8125 37.6875 C-27.10633553 45.38317626 -31.36972402 53.09545471 -35.625 60.8125 C-36.31485768 62.06339648 -37.00471772 63.31429165 -37.69458008 64.56518555 C-39.09759363 67.10931979 -40.50048483 69.65352147 -41.90332031 72.19775391 C-44.9364974 77.69861537 -47.97130763 83.19857571 -51.00604248 88.69857788 C-52.67076642 91.71567918 -54.33537732 94.73284284 -56 97.75 C-56.66666613 98.95833363 -57.3333328 100.16666696 -58 101.375 C-58.33 101.973125 -58.66 102.57125 -59 103.1875 C-62.00000001 108.62500002 -62.00000001 108.62500002 -62.99987793 110.43727112 C-63.6669601 111.64636264 -64.33403366 112.85545892 -65.00109863 114.06455994 C-66.6613377 117.07383183 -68.32172333 120.08302267 -69.98242188 123.09204102 C-73.0590021 128.66685245 -76.1342378 134.24239118 -79.2043457 139.82077026 C-80.62720337 142.40588909 -82.05087911 144.99055698 -83.47460938 147.57519531 C-84.45782041 149.36089384 -85.43987373 151.14722966 -86.421875 152.93359375 C-89.71213886 158.90583739 -93.03410592 164.85881883 -96.40625 170.78515625 C-96.75046997 171.3921788 -97.09468994 171.99920135 -97.44934082 172.62461853 C-99.88112672 176.88112672 -99.88112672 176.88112672 -101 178 C-103.36101172 178.16471264 -105.69394595 178.26141367 -108.05859375 178.31640625 C-108.83383392 178.33723267 -109.6090741 178.35805908 -110.4078064 178.3795166 C-113.08425181 178.44749845 -115.76079382 178.50574809 -118.4375 178.5625 C-119.3683139 178.58367889 -120.29912781 178.60485779 -121.25814819 178.62667847 C-156.82730846 179.4094645 -192.42466607 179.08518563 -228 179 C-222.53082841 173.49828233 -222.53082841 173.49828233 -219.72265625 171.2734375 C-218.83984985 170.57045532 -218.83984985 170.57045532 -217.93920898 169.85327148 C-217.31989502 169.36544189 -216.70058105 168.8776123 -216.0625 168.375 C-215.40644775 167.85429932 -214.75039551 167.33359863 -214.07446289 166.79711914 C-212.05258504 165.19431349 -210.02692599 163.59641525 -208 162 C-207.09072754 161.28287842 -207.09072754 161.28287842 -206.16308594 160.55126953 C-200.97680042 156.4628004 -195.77895474 152.38916653 -190.57421875 148.32421875 C-184.30926286 143.42461079 -178.09759661 138.4684906 -171.9375 133.4375 C-166.09927131 128.67142808 -160.18820542 124.02383218 -154.19921875 119.44921875 C-145.66023066 112.92619834 -137.26047536 106.23328743 -128.9375 99.4375 C-123.10061575 94.6726538 -117.19151979 90.02554467 -111.203125 85.453125 C-102.23132112 78.60012351 -93.41579149 71.54494935 -84.6081543 64.4831543 C-77.53672703 58.81813805 -70.40386938 53.23216648 -63.27050781 47.64550781 C-56.65436558 42.46230332 -50.05730472 37.25752152 -43.5 32 C-32.10364854 22.86495791 -20.59601313 13.88000341 -9 5 C-9.33 4.34 -9.66 3.68 -10 3 C-3.375 -1.125 -3.375 -1.125 0 0 Z " fill="#F28A36" transform="translate(562,234)"/>
<path d="M0 0 C3.37747921 2.74767032 4.81535807 6.49342487 6.5546875 10.3671875 C6.89236649 11.10517578 7.23004547 11.84316406 7.57795715 12.60351562 C8.68355975 15.02440272 9.77938203 17.44957984 10.875 19.875 C11.64378992 21.56419122 12.41308187 23.25315403 13.18286133 24.94189453 C15.46560957 29.95659752 17.7352034 34.97716759 20 40 C20.31422913 40.69673828 20.62845825 41.39347656 20.95220947 42.11132812 C23.38717441 47.51323346 25.81696167 52.91739491 28.22460938 58.33154297 C30.75441863 64.01881644 33.30943635 69.69007297 35.93690491 75.33279419 C37.26746493 78.19158392 38.58848492 81.05474216 39.90933228 83.91802979 C40.54714973 85.29315802 41.18978624 86.6660625 41.8374939 88.03656006 C42.73464899 89.93561499 43.61494261 91.84168441 44.4921875 93.75 C45.25571533 95.38195312 45.25571533 95.38195312 46.03466797 97.046875 C47.44856936 101.37225469 46.61172345 103.65964327 44.76342773 107.70947266 C44.24208252 108.6844873 43.7207373 109.65950195 43.18359375 110.6640625 C42.59231689 111.77273682 42.00104004 112.88141113 41.3918457 114.02368164 C40.74105975 115.22448044 40.08959299 116.42491048 39.4375 117.625 C38.94121597 118.54489212 38.94121597 118.54489212 38.43490601 119.48336792 C23.81268508 146.56643144 7.66789258 172.7992035 -10 198 C-10.5377002 198.76731445 -11.07540039 199.53462891 -11.62939453 200.32519531 C-18.90249666 210.65662923 -26.55397262 220.58241611 -34.61181641 230.31201172 C-36.44105514 232.5363094 -38.2206402 234.79819937 -40 237.0625 C-55.62516464 256.5939558 -72.89449975 276.07747166 -92 292.27734375 C-94.43389131 294.37372279 -96.77134425 296.5639738 -99.125 298.75 C-104.93543596 304.04680626 -111.04769111 308.88113348 -117.27978516 313.66943359 C-118.87921134 314.90657136 -120.46183948 316.16534315 -122.04296875 317.42578125 C-136.13764454 328.56659226 -151.23805418 338.59477869 -167.12011719 347.00292969 C-168.36228493 347.66176255 -169.60005618 348.32895994 -170.83300781 349.00488281 C-198.9229123 364.39065983 -234.61480617 375.10168054 -267 372 C-267.66 371.34 -268.32 370.68 -269 370 C-268.28199219 369.90203125 -267.56398438 369.8040625 -266.82421875 369.703125 C-216.22413732 362.3935242 -172.2936016 338.85018521 -133.92578125 305.5234375 C-131.06166266 303.05318301 -128.13834776 300.67802228 -125.1875 298.3125 C-121.16266356 295.04013298 -117.48164975 291.59452651 -113.87109375 287.875 C-112.10501276 286.105232 -110.28325204 284.4887438 -108.375 282.875 C-99.94368213 275.61237966 -91.9505001 267.53550894 -84.76171875 259.04296875 C-82.90921093 256.89471688 -80.99148176 254.81377143 -79.0612793 252.73535156 C-73.4489731 246.68707326 -68.13616563 240.46162772 -63 234 C-62.58282715 233.47712402 -62.1656543 232.95424805 -61.73583984 232.41552734 C-32.82829964 196.13918845 -8.28444261 157.40879501 13.875 116.6875 C14.47642822 115.59002441 15.07785645 114.49254883 15.69750977 113.36181641 C16.24850342 112.33878418 16.79949707 111.31575195 17.3671875 110.26171875 C17.85300293 109.36412842 18.33881836 108.46653809 18.83935547 107.54174805 C20.52127729 103.85843125 21.42311867 101.39345135 20.22167969 97.43676758 C19.79274414 96.51532959 19.36380859 95.5938916 18.921875 94.64453125 C18.42896973 93.566875 17.93606445 92.48921875 17.42822266 91.37890625 C16.87440918 90.20199219 16.3205957 89.02507812 15.75 87.8125 C15.17732284 86.5658154 14.60624025 85.31839729 14.03662109 84.0703125 C12.04044101 79.70608511 10.0203636 75.35307239 8 71 C4.96263632 64.45289151 1.93724506 57.90054521 -1.06872559 51.33895874 C-2.36460651 48.52258843 -3.67664358 45.71411959 -4.98925781 42.90551758 C-5.79310713 41.15612424 -6.59620217 39.40638406 -7.3984375 37.65625 C-7.77799591 36.85531418 -8.15755432 36.05437836 -8.5486145 35.22917175 C-11.64585192 28.39495703 -11.64585192 28.39495703 -10 24 C-9.65960693 23.08565186 -9.31921387 22.17130371 -8.96850586 21.22924805 C-8.55479736 20.24996338 -8.14108887 19.27067871 -7.71484375 18.26171875 C-7.04291992 16.66166992 -7.04291992 16.66166992 -6.35742188 15.02929688 C-5.65456055 13.37510742 -5.65456055 13.37510742 -4.9375 11.6875 C-4.46505859 10.56537109 -3.99261719 9.44324219 -3.50585938 8.28710938 C-2.34138677 5.52295723 -1.17263728 2.760696 0 0 Z " fill="#C4C5C6" transform="translate(1010,614)"/>
<path d="M0 0 C0.66 0.33 1.32 0.66 2 1 C-11.1517351 9.27916695 -24.35364757 17.46414375 -37.64855957 25.51095581 C-46.12090963 30.6389648 -54.57152159 35.80000951 -63 41 C-72.08080226 46.60161812 -81.18701278 52.1591554 -90.3125 57.6875 C-98.39909717 62.5865348 -106.46985225 67.5087951 -114.5 72.5 C-122.53014809 77.49120511 -130.60091861 82.41343872 -138.6875 87.3125 C-149.00504987 93.56318093 -159.29295886 99.85930168 -169.5612793 106.19067383 C-177.46607329 111.0625197 -185.39260519 115.89747586 -193.32861328 120.71826172 C-200.46460029 125.05663832 -207.5789137 129.42939708 -214.6875 133.8125 C-224.46035238 139.83788415 -234.2632248 145.81134199 -244.08288574 151.75997925 C-254.4549609 158.0446925 -264.78398085 164.39677319 -275.07373047 170.81542969 C-276.699431 171.8151634 -278.34925345 172.77551369 -280.00390625 173.7265625 C-282.1377076 174.84748279 -282.1377076 174.84748279 -283 177 C-315.67 177 -348.34 177 -382 177 C-378.87351691 173.87351691 -375.93492217 172.3853417 -371.984375 170.62109375 C-371.27381958 170.2971312 -370.56326416 169.97316864 -369.83117676 169.63938904 C-367.47351224 168.56597397 -365.11175638 167.50187794 -362.75 166.4375 C-361.08526905 165.68125575 -359.42088678 164.9242435 -357.75683594 164.16650391 C-355.15412508 162.98150868 -352.55117003 161.79707966 -349.94708252 160.6151123 C-341.51073642 156.78545647 -333.10114844 152.89893321 -324.69378662 149.00616455 C-312.02618169 143.14266341 -299.33994797 137.32257523 -286.625 131.5625 C-272.54764549 125.18490922 -258.52248077 118.69766916 -244.50488281 112.18994141 C-232.3824373 106.56273283 -220.24618201 100.96651223 -208.09887695 95.39318848 C-199.45454291 91.42699189 -190.81283855 87.45533557 -182.1796875 83.46484375 C-181.3609314 83.0864032 -180.54217529 82.70796265 -179.6986084 82.3180542 C-178.04308614 81.55280554 -176.38756856 80.78754674 -174.73205566 80.02227783 C-162.0487651 74.15969453 -149.35258741 68.3283011 -136.625 62.5625 C-122.54764549 56.18490922 -108.52248077 49.69766916 -94.50488281 43.18994141 C-81.6470987 37.22139051 -68.7728996 31.28955393 -55.88818359 25.37939453 C-47.6279431 21.58971403 -39.37306288 17.7887782 -31.125 13.97265625 C-30.22319 13.55559921 -29.32138 13.13854218 -28.39224243 12.70884705 C-24.00980494 10.6820494 -19.62808485 8.65372783 -15.24755859 6.62280273 C-13.67288439 5.89429754 -12.09817902 5.16585968 -10.5234375 4.4375 C-9.80341553 4.10295303 -9.08339355 3.76840607 -8.34155273 3.42372131 C-5.58351739 2.14963892 -2.88501876 0.96167292 0 0 Z " fill="#F38A36" transform="translate(550,238)"/>
<path d="M0 0 C1.18464844 -0.00257813 2.36929688 -0.00515625 3.58984375 -0.0078125 C6.83785743 0.1164085 9.87453717 0.51174303 13.0625 1.125 C12.0625 3.125 12.0625 3.125 9.76171875 3.94921875 C8.27091797 4.37654297 8.27091797 4.37654297 6.75 4.8125 C-4.2944297 8.36296317 -13.17528232 14.67190822 -21.9375 22.125 C-22.96810547 22.95451172 -22.96810547 22.95451172 -24.01953125 23.80078125 C-33.81930646 31.89960928 -40.99909931 42.582735 -47.9375 53.125 C-48.52144531 53.99898438 -49.10539063 54.87296875 -49.70703125 55.7734375 C-82.13569983 107.56817279 -87.00600524 182.37244707 -74.68457031 240.89453125 C-70.43972811 259.25000575 -64.48208963 277.14161624 -57.8828125 294.76953125 C-56.00268095 299.82456726 -54.41508886 304.9393264 -52.9375 310.125 C-54.99501225 312.06803866 -57.05815496 314.00443134 -59.125 315.9375 C-59.70314453 316.48470703 -60.28128906 317.03191406 -60.87695312 317.59570312 C-64.05178968 320.55529653 -67.08307449 323.05624055 -70.9375 325.125 C-74.59893056 318.21180943 -77.37903337 311.06885751 -80.125 303.75 C-80.48191422 302.8009227 -80.48191422 302.8009227 -80.84603882 301.83267212 C-82.56029706 297.26971689 -84.25437748 292.69952343 -85.9375 288.125 C-86.36321289 286.96887207 -86.78892578 285.81274414 -87.22753906 284.62158203 C-92.80001331 269.35425382 -97.4993925 254.01857938 -100.9375 238.125 C-101.11297363 237.33464355 -101.28844727 236.54428711 -101.46923828 235.72998047 C-104.99230144 218.34702966 -105.34759946 200.48436829 -105.3125 182.8125 C-105.31195618 181.77173309 -105.31141235 180.73096619 -105.31085205 179.65866089 C-105.18828748 128.3153819 -94.20012623 74.13032629 -59.9375 34.125 C-59.20144531 33.24328125 -58.46539063 32.3615625 -57.70703125 31.453125 C-43.22984716 14.73233163 -22.890279 -0.04970745 0 0 Z " fill="#C4C5C6" transform="translate(663.9375,394.875)"/>
<path d="M0 0 C23.43 0 46.86 0 71 0 C71 21.45 71 42.9 71 65 C55.375 72.8125 39.75 80.625 24.125 88.4375 C23.42012451 88.79005859 22.71524902 89.14261719 21.98901367 89.50585938 C20.69269389 90.15378059 19.39599954 90.8009531 18.09887695 91.44726562 C15.36227382 92.81166572 12.63420864 94.18915447 9.91796875 95.59375 C8.56638672 96.28984375 8.56638672 96.28984375 7.1875 97 C6.06408203 97.5878125 6.06408203 97.5878125 4.91796875 98.1875 C3 99 3 99 0 99 C0 66.33 0 33.66 0 0 Z " fill="#EFA155" transform="translate(1098,877)"/>
<path d="M0 0 C7.30993777 -0.09959565 14.61947209 -0.17181112 21.92993164 -0.21972656 C24.41177256 -0.2397219 26.89356709 -0.26692726 29.37524414 -0.30175781 C32.96251947 -0.35080964 36.54916678 -0.37309058 40.13671875 -0.390625 C41.22893234 -0.41127014 42.32114594 -0.43191528 43.44645691 -0.45318604 C55.48040132 -0.4566156 66.29431781 2.40005484 75 11 C83.36773443 19.85553958 86.33617037 31.44490734 86.15234375 43.4140625 C85.401675 56.15618332 82.49838026 68.17560373 72.8125 77.125 C54.22339858 92.23358882 22.47491203 87.12924615 0 87 C0 83.04 0 79.08 0 75 C3.96 75 7.92 75 12 75 C12 54.21 12 33.42 12 12 C8.04 12 4.08 12 0 12 C0 8.04 0 4.08 0 0 Z M26 12 C26 32.79 26 53.58 26 75 C45.71377174 75.12256985 45.71377174 75.12256985 63 67 C71.0802818 56.99676652 72.18965171 46.42592728 71 34 C69.27751896 25.95487899 64.78913885 19.16888814 57.91015625 14.6171875 C47.78694144 9.92474109 37.09790082 12 26 12 Z " fill="#000000" transform="translate(1228,509)"/>
<path d="M0 0 C2.62832328 1.67612676 4.69798867 3.99006101 6.88671875 6.19140625 C7.64855469 5.68480469 7.64855469 5.68480469 8.42578125 5.16796875 C9.11414062 4.72195313 9.8025 4.2759375 10.51171875 3.81640625 C11.18460938 3.37554688 11.8575 2.9346875 12.55078125 2.48046875 C19.68650692 -1.45730628 26.91562315 -1.55558847 34.88671875 -0.80859375 C37.88877876 0.10794011 38.63384848 0.8167592 40.88671875 3.19140625 C43.82859207 8.75671863 44.29779485 13.17475256 44.1796875 19.40625 C44.17544266 20.26199112 44.17119781 21.11773224 44.16682434 21.99940491 C44.15014664 24.70957045 44.1125158 27.41896873 44.07421875 30.12890625 C44.05915777 31.97590065 44.04547185 33.82290681 44.03320312 35.66992188 C44.00027901 40.17737509 43.94857344 44.68426097 43.88671875 49.19140625 C47.51671875 49.19140625 51.14671875 49.19140625 54.88671875 49.19140625 C54.88671875 53.15140625 54.88671875 57.11140625 54.88671875 61.19140625 C46.96671875 61.19140625 39.04671875 61.19140625 30.88671875 61.19140625 C30.83773438 57.82179688 30.78875 54.4521875 30.73828125 50.98046875 C30.68431543 47.72716723 30.62699065 44.47394111 30.56933594 41.22070312 C30.53098604 38.95480943 30.49614392 36.6888536 30.46484375 34.42285156 C30.41932348 31.17099758 30.36130799 27.91957365 30.30078125 24.66796875 C30.28923004 23.65022369 30.27767883 22.63247864 30.26577759 21.58389282 C30.2459079 20.64306854 30.22603821 19.70224426 30.20556641 18.73291016 C30.19224274 17.90240143 30.17891907 17.0718927 30.16519165 16.21621704 C30.06336333 13.96527011 30.06336333 13.96527011 27.88671875 12.19140625 C21.56865799 10.92245113 16.98772475 12.73923072 11.63671875 16 C9.94138121 17.07455296 9.94138121 17.07455296 8.88671875 18.19140625 C8.72783783 20.48129406 8.63533802 22.77584066 8.5703125 25.0703125 C8.5495314 25.75697495 8.52875031 26.44363739 8.50733948 27.15110779 C8.44177732 29.3519356 8.3829286 31.552886 8.32421875 33.75390625 C8.28103983 35.24285139 8.23742575 36.73178398 8.19335938 38.22070312 C8.08608945 41.87747178 7.98484103 45.53437943 7.88671875 49.19140625 C11.18671875 49.19140625 14.48671875 49.19140625 17.88671875 49.19140625 C17.88671875 53.15140625 17.88671875 57.11140625 17.88671875 61.19140625 C10.29671875 61.19140625 2.70671875 61.19140625 -5.11328125 61.19140625 C-5.16226562 57.989375 -5.21125 54.78734375 -5.26171875 51.48828125 C-5.31572823 48.38715947 -5.3730359 45.28611498 -5.43066406 42.18505859 C-5.46894727 40.02984372 -5.50380129 37.87456509 -5.53515625 35.71923828 C-5.58082075 32.62118749 -5.63881337 29.52357534 -5.69921875 26.42578125 C-5.71076996 25.46210632 -5.72232117 24.4984314 -5.73422241 23.5055542 C-5.7540921 22.60492249 -5.77396179 21.70429077 -5.79443359 20.77636719 C-5.80775726 19.98582947 -5.82108093 19.19529175 -5.83480835 18.38079834 C-6.14310488 15.95692879 -6.90699411 14.30033348 -8.11328125 12.19140625 C-14.90250269 11.52361398 -19.80035019 12.48116631 -25.7668457 15.87353516 C-29.31025831 19.37381185 -29.34901964 22.77849945 -29.44880676 27.62588501 C-29.43531686 29.7749238 -29.36940865 31.91848903 -29.30078125 34.06640625 C-29.29381664 35.53253684 -29.29181425 36.99869991 -29.29492188 38.46484375 C-29.29174599 42.0425402 -29.22089266 45.61515223 -29.11328125 49.19140625 C-25.48328125 49.19140625 -21.85328125 49.19140625 -18.11328125 49.19140625 C-18.11328125 53.15140625 -18.11328125 57.11140625 -18.11328125 61.19140625 C-29.33328125 61.19140625 -40.55328125 61.19140625 -52.11328125 61.19140625 C-52.11328125 57.23140625 -52.11328125 53.27140625 -52.11328125 49.19140625 C-48.48328125 49.19140625 -44.85328125 49.19140625 -41.11328125 49.19140625 C-41.11328125 36.98140625 -41.11328125 24.77140625 -41.11328125 12.19140625 C-44.41328125 12.19140625 -47.71328125 12.19140625 -51.11328125 12.19140625 C-51.11328125 8.23140625 -51.11328125 4.27140625 -51.11328125 0.19140625 C-43.85328125 0.19140625 -36.59328125 0.19140625 -29.11328125 0.19140625 C-28.78328125 1.84140625 -28.45328125 3.49140625 -28.11328125 5.19140625 C-27.40945313 4.75828125 -26.705625 4.32515625 -25.98046875 3.87890625 C-17.91438592 -0.67011174 -9.10885497 -3.48527353 0 0 Z " fill="#000000" transform="translate(1770.11328125,534.80859375)"/>
<path d="M0 0 C24.09 0 48.18 0 73 0 C73 8.91 73 17.82 73 27 C69.04 27 65.08 27 61 27 C61 22.05 61 17.1 61 12 C49.12 12 37.24 12 25 12 C25 19.92 25 27.84 25 36 C35.56 36 46.12 36 57 36 C57 39.96 57 43.92 57 48 C46.44 48 35.88 48 25 48 C25 56.91 25 65.82 25 75 C36.88 75 48.76 75 61 75 C61 69.72 61 64.44 61 59 C64.96 59 68.92 59 73 59 C73 68.24 73 77.48 73 87 C48.91 87 24.82 87 0 87 C0 83.04 0 79.08 0 75 C3.63 75 7.26 75 11 75 C11 54.21 11 33.42 11 12 C7.37 12 3.74 12 0 12 C0 8.04 0 4.08 0 0 Z " fill="#000000" transform="translate(1230,357)"/>
<path d="M0 0 C0 -1.98 0 -3.96 0 -6 C4.29 -6 8.58 -6 13 -6 C13 3.57 13 13.14 13 23 C8.71 23 4.42 23 0 23 C-2.875 19.375 -2.875 19.375 -3.91015625 17.16796875 C-6.28832447 12.43720401 -10.82552656 9.30117369 -15.5625 7.125 C-22.82955501 4.76391403 -31.71515352 4.73239336 -38.875 7.4375 C-46.35421226 11.44869764 -50.8264478 17.48250959 -53.5 25.4375 C-56.21290795 35.80683707 -55.63891241 44.78049108 -50.78125 54.41796875 C-46.79533252 61.02794857 -41.35915062 65.54694979 -34 68 C-23.46684266 68.82586452 -16.38593475 67.72872406 -7.75 61.75 C-2.90058782 56.90058782 0.17496047 51.63650737 2 45 C7.15464734 45.48324819 10.81550319 48.18610761 15 51 C12.0521915 61.937921 6.74727057 69.99568133 -3 76 C-15.25846107 81.92222275 -31.16430789 83.87379001 -44.25 79.375 C-46.72265625 78.25 -46.72265625 78.25 -49 77 C-49.78246094 76.5875 -50.56492187 76.175 -51.37109375 75.75 C-61.58045862 69.68980365 -67.6800489 60.07602491 -70.578125 48.73828125 C-72.63202193 35.40696876 -71.43648321 21.85575106 -64.3125 10.1875 C-49.25383435 -10.22785518 -21.09100284 -13.1207843 0 0 Z " fill="#000000" transform="translate(1303,668)"/>
<path d="M0 0 C8.20891289 4.47758885 13.2542843 10.18890192 16.1875 19.171875 C18.52242939 28.57645171 18.21703021 38.44597088 13.3125 47 C8.44511764 54.17223106 1.90819265 59.43302917 -6.6484375 61.33984375 C-17.2479893 62.99486149 -24.80754758 59.62825445 -33.5625 53.875 C-33.5625 61.135 -33.5625 68.395 -33.5625 75.875 C-29.6025 75.875 -25.6425 75.875 -21.5625 75.875 C-21.5625 79.505 -21.5625 83.135 -21.5625 86.875 C-33.4425 86.875 -45.3225 86.875 -57.5625 86.875 C-57.5625 83.245 -57.5625 79.615 -57.5625 75.875 C-53.9325 75.875 -50.3025 75.875 -46.5625 75.875 C-46.5625 54.755 -46.5625 33.635 -46.5625 11.875 C-49.8625 11.875 -53.1625 11.875 -56.5625 11.875 C-56.5625 7.915 -56.5625 3.955 -56.5625 -0.125 C-48.9725 -0.125 -41.3825 -0.125 -33.5625 -0.125 C-33.2325 1.855 -32.9025 3.835 -32.5625 5.875 C-31.94761719 5.45347656 -31.33273437 5.03195312 -30.69921875 4.59765625 C-29.89097656 4.04980469 -29.08273437 3.50195312 -28.25 2.9375 C-27.44949219 2.39222656 -26.64898438 1.84695313 -25.82421875 1.28515625 C-19.27557225 -2.79785133 -7.20547606 -2.42081212 0 0 Z M-26.5625 14.875 C-27.47 15.65875 -28.3775 16.4425 -29.3125 17.25 C-33.28253679 21.88170959 -34.03520456 26.62271833 -33.875 32.5703125 C-33.13717974 38.01173691 -30.6120426 42.23368985 -26.5 45.8125 C-20.92702342 49.725441 -15.16607107 49.49682168 -8.5625 48.875 C-3.65536985 46.55526575 -0.7513952 43.15723069 2.4375 38.875 C4.38676781 33.02719658 4.21757493 26.35288508 2.375 20.5 C-0.54400614 16.54521749 -4.13474362 13.08887819 -8.5625 10.875 C-15.57017973 10.23507715 -21.09827342 9.9438687 -26.5625 14.875 Z " fill="#000000" transform="translate(1693.5625,535.125)"/>
<path d="M0 0 C8.20891289 4.47758885 13.2542843 10.18890192 16.1875 19.171875 C18.52242939 28.57645171 18.21703021 38.44597088 13.3125 47 C8.44511764 54.17223106 1.90819265 59.43302917 -6.6484375 61.33984375 C-17.2479893 62.99486149 -24.80754758 59.62825445 -33.5625 53.875 C-33.5625 61.135 -33.5625 68.395 -33.5625 75.875 C-29.6025 75.875 -25.6425 75.875 -21.5625 75.875 C-21.5625 79.505 -21.5625 83.135 -21.5625 86.875 C-33.4425 86.875 -45.3225 86.875 -57.5625 86.875 C-57.5625 83.245 -57.5625 79.615 -57.5625 75.875 C-53.9325 75.875 -50.3025 75.875 -46.5625 75.875 C-46.5625 54.755 -46.5625 33.635 -46.5625 11.875 C-49.8625 11.875 -53.1625 11.875 -56.5625 11.875 C-56.5625 7.915 -56.5625 3.955 -56.5625 -0.125 C-48.9725 -0.125 -41.3825 -0.125 -33.5625 -0.125 C-33.2325 1.855 -32.9025 3.835 -32.5625 5.875 C-31.94761719 5.45347656 -31.33273438 5.03195312 -30.69921875 4.59765625 C-29.89097656 4.04980469 -29.08273438 3.50195312 -28.25 2.9375 C-27.44949219 2.39222656 -26.64898438 1.84695313 -25.82421875 1.28515625 C-19.27557225 -2.79785133 -7.20547606 -2.42081212 0 0 Z M-26.5625 14.875 C-27.47 15.65875 -28.3775 16.4425 -29.3125 17.25 C-33.28253679 21.88170959 -34.03520456 26.62271833 -33.875 32.5703125 C-33.13717974 38.01173691 -30.6120426 42.23368985 -26.5 45.8125 C-20.92702342 49.725441 -15.16607107 49.49682168 -8.5625 48.875 C-3.65536985 46.55526575 -0.7513952 43.15723069 2.4375 38.875 C4.38676781 33.02719658 4.21757493 26.35288508 2.375 20.5 C-0.54400614 16.54521749 -4.13474362 13.08887819 -8.5625 10.875 C-15.57017973 10.23507715 -21.09827342 9.9438687 -26.5625 14.875 Z " fill="#000000" transform="translate(2230.5625,383.125)"/>
<path d="M0 0 C8.20891289 4.47758885 13.2542843 10.18890192 16.1875 19.171875 C18.52242939 28.57645171 18.21703021 38.44597088 13.3125 47 C8.44511764 54.17223106 1.90819265 59.43302917 -6.6484375 61.33984375 C-17.2479893 62.99486149 -24.80754758 59.62825445 -33.5625 53.875 C-33.5625 61.135 -33.5625 68.395 -33.5625 75.875 C-29.6025 75.875 -25.6425 75.875 -21.5625 75.875 C-21.5625 79.505 -21.5625 83.135 -21.5625 86.875 C-33.4425 86.875 -45.3225 86.875 -57.5625 86.875 C-57.5625 83.245 -57.5625 79.615 -57.5625 75.875 C-53.9325 75.875 -50.3025 75.875 -46.5625 75.875 C-46.5625 54.755 -46.5625 33.635 -46.5625 11.875 C-49.8625 11.875 -53.1625 11.875 -56.5625 11.875 C-56.5625 7.915 -56.5625 3.955 -56.5625 -0.125 C-48.9725 -0.125 -41.3825 -0.125 -33.5625 -0.125 C-33.2325 1.855 -32.9025 3.835 -32.5625 5.875 C-31.94761719 5.45347656 -31.33273437 5.03195312 -30.69921875 4.59765625 C-29.89097656 4.04980469 -29.08273437 3.50195312 -28.25 2.9375 C-27.44949219 2.39222656 -26.64898438 1.84695313 -25.82421875 1.28515625 C-19.27557225 -2.79785133 -7.20547606 -2.42081212 0 0 Z M-26.5625 14.875 C-27.47 15.65875 -28.3775 16.4425 -29.3125 17.25 C-33.28253679 21.88170959 -34.03520456 26.62271833 -33.875 32.5703125 C-33.13717974 38.01173691 -30.6120426 42.23368985 -26.5 45.8125 C-20.92702342 49.725441 -15.16607107 49.49682168 -8.5625 48.875 C-3.65536985 46.55526575 -0.7513952 43.15723069 2.4375 38.875 C4.38676781 33.02719658 4.21757493 26.35288508 2.375 20.5 C-0.54400614 16.54521749 -4.13474362 13.08887819 -8.5625 10.875 C-15.57017973 10.23507715 -21.09827342 9.9438687 -26.5625 14.875 Z " fill="#000000" transform="translate(1593.5625,383.125)"/>
<path d="M0 0 C7.92 0 15.84 0 24 0 C24.495 15.345 24.495 15.345 25 31 C27.64 29.35 30.28 27.7 33 26 C36.56440418 24.81186527 39.55474782 24.75812047 43.3125 24.6875 C44.60800781 24.65011719 45.90351563 24.61273438 47.23828125 24.57421875 C51.66471841 25.07523812 53.65347828 26.08809149 57 29 C60.31606879 34.14966553 60.4014411 38.4234006 60.29296875 44.3359375 C60.28872391 45.21528961 60.28447906 46.09464172 60.28010559 47.00064087 C60.26339461 49.79241342 60.22575692 52.58344788 60.1875 55.375 C60.17244334 57.27472911 60.15875666 59.17446961 60.14648438 61.07421875 C60.11351598 65.71642758 60.06178653 70.35808891 60 75 C63.63 75 67.26 75 71 75 C71 78.96 71 82.92 71 87 C63.41 87 55.82 87 48 87 C47.93941406 84.52886719 47.87882812 82.05773437 47.81640625 79.51171875 C47.75435792 77.08225217 47.69107842 74.6528205 47.62768555 72.22338867 C47.58473559 70.55252273 47.54303823 68.88162405 47.50268555 67.21069336 C48.47382156 51.51040269 48.47382156 51.51040269 44 38 C37.55945881 37.19493235 33.71802258 38.77633417 28.1015625 41.90625 C26 43 26 43 24 43 C24 53.56 24 64.12 24 75 C27.3 75 30.6 75 34 75 C34 78.96 34 82.92 34 87 C22.78 87 11.56 87 0 87 C0 83.04 0 79.08 0 75 C3.63 75 7.26 75 11 75 C11 54.21 11 33.42 11 12 C7.37 12 3.74 12 0 12 C0 8.04 0 4.08 0 0 Z " fill="#000000" transform="translate(2065,357)"/>
<path d="M0 0 C3.97105295 2.39445624 6.28269101 5.989152 7.45483398 10.39916992 C8.02031265 14.14718428 8.00998846 17.84522859 7.984375 21.625 C7.98296005 22.41698288 7.9815451 23.20896576 7.98008728 24.02494812 C7.97451332 26.54141094 7.96196568 29.05778306 7.94921875 31.57421875 C7.94420038 33.285806 7.93963806 34.99739466 7.93554688 36.70898438 C7.92455243 40.89326383 7.90730582 45.07747594 7.88671875 49.26171875 C11.18671875 49.26171875 14.48671875 49.26171875 17.88671875 49.26171875 C17.88671875 53.22171875 17.88671875 57.18171875 17.88671875 61.26171875 C10.29671875 61.26171875 2.70671875 61.26171875 -5.11328125 61.26171875 C-5.16226562 58.0596875 -5.21125 54.85765625 -5.26171875 51.55859375 C-5.31572823 48.45747197 -5.3730359 45.35642748 -5.43066406 42.25537109 C-5.46894727 40.10015622 -5.50380129 37.94487759 -5.53515625 35.78955078 C-5.58082075 32.69149999 -5.63881337 29.59388784 -5.69921875 26.49609375 C-5.71076996 25.53241882 -5.72232117 24.5687439 -5.73422241 23.5758667 C-5.7540921 22.67523499 -5.77396179 21.77460327 -5.79443359 20.84667969 C-5.80775726 20.05614197 -5.82108093 19.26560425 -5.83480835 18.45111084 C-6.14310488 16.02724129 -6.90699411 14.37064598 -8.11328125 12.26171875 C-15.76596483 11.64456685 -20.56710266 13.30024162 -27.11328125 17.26171875 C-29.0254771 19.1739146 -28.35763423 22.59817379 -28.4296875 25.140625 C-28.4504686 25.82728745 -28.47124969 26.51394989 -28.49266052 27.22142029 C-28.55822268 29.4222481 -28.6170714 31.6231985 -28.67578125 33.82421875 C-28.71896017 35.31316389 -28.76257425 36.80209648 -28.80664062 38.29101562 C-28.91391055 41.94778428 -29.01515897 45.60469193 -29.11328125 49.26171875 C-25.48328125 49.26171875 -21.85328125 49.26171875 -18.11328125 49.26171875 C-18.11328125 53.22171875 -18.11328125 57.18171875 -18.11328125 61.26171875 C-29.33328125 61.26171875 -40.55328125 61.26171875 -52.11328125 61.26171875 C-52.11328125 57.30171875 -52.11328125 53.34171875 -52.11328125 49.26171875 C-48.81328125 49.26171875 -45.51328125 49.26171875 -42.11328125 49.26171875 C-42.11328125 37.05171875 -42.11328125 24.84171875 -42.11328125 12.26171875 C-45.41328125 12.26171875 -48.71328125 12.26171875 -52.11328125 12.26171875 C-52.11328125 8.30171875 -52.11328125 4.34171875 -52.11328125 0.26171875 C-44.52328125 0.26171875 -36.93328125 0.26171875 -29.11328125 0.26171875 C-28.78328125 1.91171875 -28.45328125 3.56171875 -28.11328125 5.26171875 C-27.40945313 4.82859375 -26.705625 4.39546875 -25.98046875 3.94921875 C-17.80808222 -0.6597512 -9.25072908 -3.23177042 0 0 Z " fill="#000000" transform="translate(1953.11328125,534.73828125)"/>
<path d="M0 0 C3.97105295 2.39445624 6.28269101 5.989152 7.45483398 10.39916992 C8.02031265 14.14718428 8.00998846 17.84522859 7.984375 21.625 C7.98296005 22.41698288 7.9815451 23.20896576 7.98008728 24.02494812 C7.97451332 26.54141094 7.96196568 29.05778306 7.94921875 31.57421875 C7.94420038 33.285806 7.93963806 34.99739466 7.93554688 36.70898438 C7.92455243 40.89326383 7.90730582 45.07747594 7.88671875 49.26171875 C11.18671875 49.26171875 14.48671875 49.26171875 17.88671875 49.26171875 C17.88671875 53.22171875 17.88671875 57.18171875 17.88671875 61.26171875 C10.29671875 61.26171875 2.70671875 61.26171875 -5.11328125 61.26171875 C-5.16226562 58.0596875 -5.21125 54.85765625 -5.26171875 51.55859375 C-5.31572823 48.45747197 -5.3730359 45.35642748 -5.43066406 42.25537109 C-5.46894727 40.10015622 -5.50380129 37.94487759 -5.53515625 35.78955078 C-5.58082075 32.69149999 -5.63881337 29.59388784 -5.69921875 26.49609375 C-5.71076996 25.53241882 -5.72232117 24.5687439 -5.73422241 23.5758667 C-5.7540921 22.67523499 -5.77396179 21.77460327 -5.79443359 20.84667969 C-5.80775726 20.05614197 -5.82108093 19.26560425 -5.83480835 18.45111084 C-6.14310488 16.02724129 -6.90699411 14.37064598 -8.11328125 12.26171875 C-15.76596483 11.64456685 -20.56710266 13.30024162 -27.11328125 17.26171875 C-29.0254771 19.1739146 -28.35763423 22.59817379 -28.4296875 25.140625 C-28.4504686 25.82728745 -28.47124969 26.51394989 -28.49266052 27.22142029 C-28.55822268 29.4222481 -28.6170714 31.6231985 -28.67578125 33.82421875 C-28.71896017 35.31316389 -28.76257425 36.80209648 -28.80664062 38.29101562 C-28.91391055 41.94778428 -29.01515897 45.60469193 -29.11328125 49.26171875 C-25.48328125 49.26171875 -21.85328125 49.26171875 -18.11328125 49.26171875 C-18.11328125 53.22171875 -18.11328125 57.18171875 -18.11328125 61.26171875 C-29.33328125 61.26171875 -40.55328125 61.26171875 -52.11328125 61.26171875 C-52.11328125 57.30171875 -52.11328125 53.34171875 -52.11328125 49.26171875 C-48.81328125 49.26171875 -45.51328125 49.26171875 -42.11328125 49.26171875 C-42.11328125 37.05171875 -42.11328125 24.84171875 -42.11328125 12.26171875 C-45.41328125 12.26171875 -48.71328125 12.26171875 -52.11328125 12.26171875 C-52.11328125 8.30171875 -52.11328125 4.34171875 -52.11328125 0.26171875 C-44.52328125 0.26171875 -36.93328125 0.26171875 -29.11328125 0.26171875 C-28.78328125 1.91171875 -28.45328125 3.56171875 -28.11328125 5.26171875 C-27.40945313 4.82859375 -26.705625 4.39546875 -25.98046875 3.94921875 C-17.80808222 -0.6597512 -9.25072908 -3.23177042 0 0 Z " fill="#000000" transform="translate(1790.11328125,382.73828125)"/>
<path d="M0 0 C3.97105295 2.39445624 6.28269101 5.989152 7.45483398 10.39916992 C8.02031265 14.14718428 8.00998846 17.84522859 7.984375 21.625 C7.98296005 22.41698288 7.9815451 23.20896576 7.98008728 24.02494812 C7.97451332 26.54141094 7.96196568 29.05778306 7.94921875 31.57421875 C7.94420038 33.285806 7.93963806 34.99739466 7.93554688 36.70898438 C7.92455243 40.89326383 7.90730582 45.07747594 7.88671875 49.26171875 C11.18671875 49.26171875 14.48671875 49.26171875 17.88671875 49.26171875 C17.88671875 53.22171875 17.88671875 57.18171875 17.88671875 61.26171875 C10.29671875 61.26171875 2.70671875 61.26171875 -5.11328125 61.26171875 C-5.16226562 58.0596875 -5.21125 54.85765625 -5.26171875 51.55859375 C-5.31572823 48.45747197 -5.3730359 45.35642748 -5.43066406 42.25537109 C-5.46894727 40.10015622 -5.50380129 37.94487759 -5.53515625 35.78955078 C-5.58082075 32.69149999 -5.63881337 29.59388784 -5.69921875 26.49609375 C-5.71076996 25.53241882 -5.72232117 24.5687439 -5.73422241 23.5758667 C-5.7540921 22.67523499 -5.77396179 21.77460327 -5.79443359 20.84667969 C-5.80775726 20.05614197 -5.82108093 19.26560425 -5.83480835 18.45111084 C-6.14310488 16.02724129 -6.90699411 14.37064598 -8.11328125 12.26171875 C-15.76596483 11.64456685 -20.56710266 13.30024162 -27.11328125 17.26171875 C-29.0254771 19.1739146 -28.35763423 22.59817379 -28.4296875 25.140625 C-28.4504686 25.82728745 -28.47124969 26.51394989 -28.49266052 27.22142029 C-28.55822268 29.4222481 -28.6170714 31.6231985 -28.67578125 33.82421875 C-28.71896017 35.31316389 -28.76257425 36.80209648 -28.80664062 38.29101562 C-28.91391055 41.94778428 -29.01515897 45.60469193 -29.11328125 49.26171875 C-25.48328125 49.26171875 -21.85328125 49.26171875 -18.11328125 49.26171875 C-18.11328125 53.22171875 -18.11328125 57.18171875 -18.11328125 61.26171875 C-29.33328125 61.26171875 -40.55328125 61.26171875 -52.11328125 61.26171875 C-52.11328125 57.30171875 -52.11328125 53.34171875 -52.11328125 49.26171875 C-48.81328125 49.26171875 -45.51328125 49.26171875 -42.11328125 49.26171875 C-42.11328125 37.05171875 -42.11328125 24.84171875 -42.11328125 12.26171875 C-45.41328125 12.26171875 -48.71328125 12.26171875 -52.11328125 12.26171875 C-52.11328125 8.30171875 -52.11328125 4.34171875 -52.11328125 0.26171875 C-44.52328125 0.26171875 -36.93328125 0.26171875 -29.11328125 0.26171875 C-28.78328125 1.91171875 -28.45328125 3.56171875 -28.11328125 5.26171875 C-27.40945313 4.82859375 -26.705625 4.39546875 -25.98046875 3.94921875 C-17.80808222 -0.6597512 -9.25072908 -3.23177042 0 0 Z " fill="#000000" transform="translate(1361.11328125,382.73828125)"/>
<path d="M0 0 C10.26801258 8.19154992 10.99820923 16.03149111 12.79296875 29.4921875 C-3.70703125 29.8221875 -20.20703125 30.1521875 -37.20703125 30.4921875 C-33.35805649 38.37613651 -33.35805649 38.37613651 -27.20703125 43.4921875 C-21.08506799 45.53284192 -13.78751697 45.36770944 -7.70703125 43.3046875 C-5.05254815 41.51783009 -5.05254815 41.51783009 -2.76953125 38.7421875 C-0.20703125 36.4921875 -0.20703125 36.4921875 3.23046875 36.4921875 C6.71691437 37.4708389 9.64038773 38.72366644 12.79296875 40.4921875 C9.39519429 47.50009733 3.57143568 52.08078041 -3.58203125 54.8671875 C-14.19441183 58.25380689 -25.21339788 58.50653155 -35.51953125 53.7421875 C-43.99862805 48.92212002 -48.87315303 42.93978616 -51.8203125 33.53515625 C-53.63872333 23.92880411 -52.07569655 14.77876861 -46.95703125 6.4609375 C-35.93235953 -7.82102359 -14.49455221 -9.90247284 0 0 Z M-34.51953125 11.9296875 C-36.57414498 14.70050436 -36.57414498 14.70050436 -37.20703125 19.4921875 C-25.32703125 19.4921875 -13.44703125 19.4921875 -1.20703125 19.4921875 C-3.09963391 13.51221985 -3.09963391 13.51221985 -7.14453125 9.6796875 C-7.83417969 9.09574219 -8.52382812 8.51179687 -9.234375 7.91015625 C-17.57009501 1.91834167 -28.10845693 5.17206862 -34.51953125 11.9296875 Z " fill="#000000" transform="translate(1509.20703125,539.5078125)"/>
<path d="M0 0 C10.26801258 8.19154992 10.99820923 16.03149111 12.79296875 29.4921875 C-3.70703125 29.8221875 -20.20703125 30.1521875 -37.20703125 30.4921875 C-33.35805649 38.37613651 -33.35805649 38.37613651 -27.20703125 43.4921875 C-21.08506799 45.53284192 -13.78751697 45.36770944 -7.70703125 43.3046875 C-5.05254815 41.51783009 -5.05254815 41.51783009 -2.76953125 38.7421875 C-0.20703125 36.4921875 -0.20703125 36.4921875 3.23046875 36.4921875 C6.71691437 37.4708389 9.64038773 38.72366644 12.79296875 40.4921875 C9.39519429 47.50009733 3.57143568 52.08078041 -3.58203125 54.8671875 C-14.19441183 58.25380689 -25.21339788 58.50653155 -35.51953125 53.7421875 C-43.99862805 48.92212002 -48.87315303 42.93978616 -51.8203125 33.53515625 C-53.63872333 23.92880411 -52.07569655 14.77876861 -46.95703125 6.4609375 C-35.93235953 -7.82102359 -14.49455221 -9.90247284 0 0 Z M-34.51953125 11.9296875 C-36.57414498 14.70050436 -36.57414498 14.70050436 -37.20703125 19.4921875 C-25.32703125 19.4921875 -13.44703125 19.4921875 -1.20703125 19.4921875 C-3.09963391 13.51221985 -3.09963391 13.51221985 -7.14453125 9.6796875 C-7.83417969 9.09574219 -8.52382812 8.51179688 -9.234375 7.91015625 C-17.57009501 1.91834167 -28.10845693 5.17206862 -34.51953125 11.9296875 Z " fill="#000000" transform="translate(1864.20703125,387.5078125)"/>
<path d="M0 0 C10.26801258 8.19154992 10.99820923 16.03149111 12.79296875 29.4921875 C-3.70703125 29.8221875 -20.20703125 30.1521875 -37.20703125 30.4921875 C-33.35805649 38.37613651 -33.35805649 38.37613651 -27.20703125 43.4921875 C-21.08506799 45.53284192 -13.78751697 45.36770944 -7.70703125 43.3046875 C-5.05254815 41.51783009 -5.05254815 41.51783009 -2.76953125 38.7421875 C-0.20703125 36.4921875 -0.20703125 36.4921875 3.23046875 36.4921875 C6.71691437 37.4708389 9.64038773 38.72366644 12.79296875 40.4921875 C9.39519429 47.50009733 3.57143568 52.08078041 -3.58203125 54.8671875 C-14.19441183 58.25380689 -25.21339788 58.50653155 -35.51953125 53.7421875 C-43.99862805 48.92212002 -48.87315303 42.93978616 -51.8203125 33.53515625 C-53.63872333 23.92880411 -52.07569655 14.77876861 -46.95703125 6.4609375 C-35.93235953 -7.82102359 -14.49455221 -9.90247284 0 0 Z M-34.51953125 11.9296875 C-36.57414498 14.70050436 -36.57414498 14.70050436 -37.20703125 19.4921875 C-25.32703125 19.4921875 -13.44703125 19.4921875 -1.20703125 19.4921875 C-3.09963391 13.51221985 -3.09963391 13.51221985 -7.14453125 9.6796875 C-7.83417969 9.09574219 -8.52382812 8.51179688 -9.234375 7.91015625 C-17.57009501 1.91834167 -28.10845693 5.17206862 -34.51953125 11.9296875 Z " fill="#000000" transform="translate(1718.20703125,387.5078125)"/>
<path d="M0 0 C10.26801258 8.19154992 10.99820923 16.03149111 12.79296875 29.4921875 C-3.70703125 29.8221875 -20.20703125 30.1521875 -37.20703125 30.4921875 C-33.35805649 38.37613651 -33.35805649 38.37613651 -27.20703125 43.4921875 C-21.08506799 45.53284192 -13.78751697 45.36770944 -7.70703125 43.3046875 C-5.05254815 41.51783009 -5.05254815 41.51783009 -2.76953125 38.7421875 C-0.20703125 36.4921875 -0.20703125 36.4921875 3.23046875 36.4921875 C6.71691437 37.4708389 9.64038773 38.72366644 12.79296875 40.4921875 C9.39519429 47.50009733 3.57143568 52.08078041 -3.58203125 54.8671875 C-14.19441183 58.25380689 -25.21339788 58.50653155 -35.51953125 53.7421875 C-43.99862805 48.92212002 -48.87315303 42.93978616 -51.8203125 33.53515625 C-53.63872333 23.92880411 -52.07569655 14.77876861 -46.95703125 6.4609375 C-35.93235953 -7.82102359 -14.49455221 -9.90247284 0 0 Z M-34.51953125 11.9296875 C-36.57414498 14.70050436 -36.57414498 14.70050436 -37.20703125 19.4921875 C-25.32703125 19.4921875 -13.44703125 19.4921875 -1.20703125 19.4921875 C-3.09963391 13.51221985 -3.09963391 13.51221985 -7.14453125 9.6796875 C-7.83417969 9.09574219 -8.52382812 8.51179688 -9.234375 7.91015625 C-17.57009501 1.91834167 -28.10845693 5.17206862 -34.51953125 11.9296875 Z " fill="#000000" transform="translate(1520.20703125,387.5078125)"/>
<path d="M0 0 C10.26801258 8.19154992 10.99820923 16.03149111 12.79296875 29.4921875 C-3.70703125 29.8221875 -20.20703125 30.1521875 -37.20703125 30.4921875 C-33.35805649 38.37613651 -33.35805649 38.37613651 -27.20703125 43.4921875 C-21.08506799 45.53284192 -13.78751697 45.36770944 -7.70703125 43.3046875 C-5.05254815 41.51783009 -5.05254815 41.51783009 -2.76953125 38.7421875 C-0.20703125 36.4921875 -0.20703125 36.4921875 3.23046875 36.4921875 C6.71691437 37.4708389 9.64038773 38.72366644 12.79296875 40.4921875 C9.52636496 47.22955782 3.76117788 51.95587727 -3.01953125 54.9296875 C-11.99957337 57.83093188 -24.53779048 58.53310803 -33.39453125 54.8671875 C-35.359375 53.75 -35.359375 53.75 -37.20703125 52.4921875 C-37.90957031 52.05648437 -38.61210938 51.62078125 -39.3359375 51.171875 C-45.49959255 47.01736717 -48.76551871 42.06164713 -51.51953125 35.2421875 C-53.41748281 24.88972447 -52.54849579 15.54706737 -46.95703125 6.4609375 C-35.93235953 -7.82102359 -14.49455221 -9.90247284 0 0 Z M-34.51953125 11.9296875 C-36.57414498 14.70050436 -36.57414498 14.70050436 -37.20703125 19.4921875 C-25.32703125 19.4921875 -13.44703125 19.4921875 -1.20703125 19.4921875 C-3.09963391 13.51221985 -3.09963391 13.51221985 -7.14453125 9.6796875 C-7.83417969 9.09574219 -8.52382812 8.51179687 -9.234375 7.91015625 C-17.57009501 1.91834167 -28.10845693 5.17206862 -34.51953125 11.9296875 Z " fill="#000000" transform="translate(1379.20703125,692.5078125)"/>
<path d="M0 0 C10.26801258 8.19154992 10.99820923 16.03149111 12.79296875 29.4921875 C-3.70703125 29.8221875 -20.20703125 30.1521875 -37.20703125 30.4921875 C-33.35805649 38.37613651 -33.35805649 38.37613651 -27.20703125 43.4921875 C-21.08506799 45.53284192 -13.78751697 45.36770944 -7.70703125 43.3046875 C-5.05254815 41.51783009 -5.05254815 41.51783009 -2.76953125 38.7421875 C-0.20703125 36.4921875 -0.20703125 36.4921875 3.23046875 36.4921875 C6.71691437 37.4708389 9.64038773 38.72366644 12.79296875 40.4921875 C9.52636496 47.22955782 3.76117788 51.95587727 -3.01953125 54.9296875 C-11.99957337 57.83093188 -24.53779048 58.53310803 -33.39453125 54.8671875 C-35.359375 53.75 -35.359375 53.75 -37.20703125 52.4921875 C-37.90957031 52.05648437 -38.61210938 51.62078125 -39.3359375 51.171875 C-45.49959255 47.01736717 -48.76551871 42.06164713 -51.51953125 35.2421875 C-53.41748281 24.88972447 -52.54849579 15.54706737 -46.95703125 6.4609375 C-35.93235953 -7.82102359 -14.49455221 -9.90247284 0 0 Z M-34.51953125 11.9296875 C-36.57414498 14.70050436 -36.57414498 14.70050436 -37.20703125 19.4921875 C-25.32703125 19.4921875 -13.44703125 19.4921875 -1.20703125 19.4921875 C-3.09963391 13.51221985 -3.09963391 13.51221985 -7.14453125 9.6796875 C-7.83417969 9.09574219 -8.52382812 8.51179687 -9.234375 7.91015625 C-17.57009501 1.91834167 -28.10845693 5.17206862 -34.51953125 11.9296875 Z " fill="#000000" transform="translate(1881.20703125,539.5078125)"/>
<path d="M0 0 C10.26801258 8.19154992 10.99820923 16.03149111 12.79296875 29.4921875 C-3.70703125 29.8221875 -20.20703125 30.1521875 -37.20703125 30.4921875 C-33.35805649 38.37613651 -33.35805649 38.37613651 -27.20703125 43.4921875 C-21.08506799 45.53284192 -13.78751697 45.36770944 -7.70703125 43.3046875 C-5.05254815 41.51783009 -5.05254815 41.51783009 -2.76953125 38.7421875 C-0.20703125 36.4921875 -0.20703125 36.4921875 3.23046875 36.4921875 C6.71691437 37.4708389 9.64038773 38.72366644 12.79296875 40.4921875 C9.52636496 47.22955782 3.76117788 51.95587727 -3.01953125 54.9296875 C-11.99957337 57.83093188 -24.53779048 58.53310803 -33.39453125 54.8671875 C-35.359375 53.75 -35.359375 53.75 -37.20703125 52.4921875 C-37.90957031 52.05648437 -38.61210938 51.62078125 -39.3359375 51.171875 C-45.49959255 47.01736717 -48.76551871 42.06164713 -51.51953125 35.2421875 C-53.41748281 24.88972447 -52.54849579 15.54706737 -46.95703125 6.4609375 C-35.93235953 -7.82102359 -14.49455221 -9.90247284 0 0 Z M-34.51953125 11.9296875 C-36.57414498 14.70050436 -36.57414498 14.70050436 -37.20703125 19.4921875 C-25.32703125 19.4921875 -13.44703125 19.4921875 -1.20703125 19.4921875 C-3.09963391 13.51221985 -3.09963391 13.51221985 -7.14453125 9.6796875 C-7.83417969 9.09574219 -8.52382812 8.51179687 -9.234375 7.91015625 C-17.57009501 1.91834167 -28.10845693 5.17206862 -34.51953125 11.9296875 Z " fill="#000000" transform="translate(1375.20703125,539.5078125)"/>
<path d="M0 0 C6.93 0 13.86 0 21 0 C21.04898437 3.12984375 21.09796875 6.2596875 21.1484375 9.484375 C21.20244893 12.51599912 21.25975583 15.54754427 21.31738281 18.57910156 C21.35566306 20.68581254 21.3905176 22.79258867 21.421875 24.89941406 C21.46754598 27.92797121 21.52553745 30.95608022 21.5859375 33.984375 C21.59748871 34.92617615 21.60903992 35.86797729 21.62094116 36.83831787 C21.64081085 37.71892883 21.66068054 38.59953979 21.68115234 39.50683594 C21.69447601 40.27960876 21.70779968 41.05238159 21.7215271 41.84857178 C22.0325128 44.25118769 22.80687614 45.90710138 24 48 C31.65268358 48.6171519 36.45382141 46.96147713 43 43 C44.88631543 41.11368457 44.24265292 37.85799307 44.31640625 35.33984375 C44.33718735 34.67537735 44.35796844 34.01091095 44.37937927 33.3263092 C44.44493658 31.19681457 44.50378785 29.06719332 44.5625 26.9375 C44.60567939 25.49673153 44.64929349 24.05597601 44.69335938 22.61523438 C44.80062393 19.0769596 44.90187371 15.53854131 45 12 C41.37 12 37.74 12 34 12 C34 8.04 34 4.08 34 0 C41.59 0 49.18 0 57 0 C57 16.17 57 32.34 57 49 C60.63 49 64.26 49 68 49 C68 52.96 68 56.92 68 61 C60.41 61 52.82 61 45 61 C44.505 58.03 44.505 58.03 44 55 C43.55011719 55.33773437 43.10023437 55.67546875 42.63671875 56.0234375 C36.43213352 60.32561483 30.08306911 62.38496196 22.47265625 61.80859375 C16.99929549 60.79770682 13.00052074 58.90075507 9.75 54.1875 C7.85932216 48.67302296 7.85891132 42.86789811 7.90234375 37.09765625 C7.9037587 36.3750914 7.90517365 35.65252655 7.90663147 34.9080658 C7.91217775 32.62616635 7.9247198 30.34436921 7.9375 28.0625 C7.94252196 26.50455872 7.94708364 24.94661588 7.95117188 23.38867188 C7.9621295 19.59240919 7.97935628 15.79622187 8 12 C5.36 12 2.72 12 0 12 C0 8.04 0 4.08 0 0 Z " fill="#000000" transform="translate(1884,383)"/>
<path d="M0 0 C6.61156659 4.83703356 10.80080992 13.31590798 12.0546875 21.3203125 C12.50162631 31.20659892 10.30829562 40.05864401 4.0546875 47.8203125 C-2.80880404 54.5278156 -11.39385213 57.79022916 -20.9453125 57.8203125 C-31.09734693 57.18838613 -39.42366302 53.97461193 -46.3828125 46.3828125 C-52.55964683 38.46110972 -53.76513467 29.37342824 -52.70703125 19.625 C-51.33877468 11.69187604 -47.35113578 5.45266177 -41.0703125 0.4453125 C-28.6202152 -7.93232307 -12.71477347 -7.71056544 0 0 Z M-34.6953125 12.6953125 C-38.95088875 18.60583507 -39.82366869 23.61779177 -38.9453125 30.8203125 C-37.13347062 36.74997682 -33.95257356 40.30457601 -28.9453125 43.8203125 C-23.8423001 45.52131663 -18.0255737 45.77072767 -12.84375 44.171875 C-8.32141266 41.84097866 -5.29341916 38.24484405 -2.9453125 33.8203125 C-1.25200415 28.38672179 -1.38927773 23.46061507 -3.1953125 18.1328125 C-6.16733989 12.50718923 -8.796282 8.94452304 -14.9453125 6.8203125 C-23.10369929 5.93273838 -28.83398591 6.56756197 -34.6953125 12.6953125 Z " fill="#000000" transform="translate(1619.9453125,539.1796875)"/>
<path d="M0 0 C0.75539063 -0.00386719 1.51078125 -0.00773437 2.2890625 -0.01171875 C6.23082173 -0.00482756 9.75909384 0.31078759 13.625 1.125 C15.72823534 1.1909735 17.83335724 1.21062245 19.9375 1.1875 C22.7528125 1.1565625 22.7528125 1.1565625 25.625 1.125 C25.625 8.055 25.625 14.985 25.625 22.125 C21.665 22.125 17.705 22.125 13.625 22.125 C13.26692708 20.10677083 12.90885417 18.08854167 12.55078125 16.0703125 C11.75609899 13.91460482 11.75609899 13.91460482 9.390625 12.88671875 C6.50241345 12.09123676 4.05487563 11.82498557 1.0625 11.8125 C0.13308594 11.79574219 -0.79632812 11.77898437 -1.75390625 11.76171875 C-4.87134736 12.1937933 -6.23645785 12.81537448 -8.375 15.125 C-8.70925735 17.75125139 -8.70925735 17.75125139 -8.375 20.125 C-1.30905449 22.46923133 5.78902797 23.99482918 13.109375 25.28125 C19.23309782 26.75094348 23.11214054 28.85571081 26.625 34.125 C29.28567601 38.78118302 29.38662112 43.91265544 28.625 49.125 C26.70466746 54.14015417 23.68417298 57.98317842 18.76171875 60.375 C9.71638305 63.54996244 0.16281688 64.17303625 -8.6875 60.046875 C-9.244375 59.74265625 -9.80125 59.4384375 -10.375 59.125 C-10.375 60.115 -10.375 61.105 -10.375 62.125 C-14.005 62.125 -17.635 62.125 -21.375 62.125 C-21.375 54.865 -21.375 47.605 -21.375 40.125 C-17.745 40.125 -14.115 40.125 -10.375 40.125 C-9.75651042 41.85026042 -9.13802083 43.57552083 -8.51953125 45.30078125 C-6.87829338 47.91667915 -5.15964769 48.82707099 -2.375 50.125 C0.60983504 50.5589607 0.60983504 50.5589607 3.6875 50.4375 C4.70972656 50.43363281 5.73195313 50.42976563 6.78515625 50.42578125 C9.60235366 50.12739858 11.28500573 49.69582949 13.625 48.125 C14.70524658 45.72389783 14.70524658 45.72389783 14.625 43.125 C12.25768105 39.82061729 9.54818545 39.44091862 5.6875 38.6875 C-14.70568759 34.31264858 -14.70568759 34.31264858 -20.1875 26.5625 C-22.28474879 20.49151667 -22.56298285 14.59234899 -19.75 8.75 C-13.64536453 2.00277132 -9.15559448 -0.04639659 0 0 Z " fill="#000000" transform="translate(2031.375,381.875)"/>
<path d="M0 0 C12.21 0 24.42 0 37 0 C35.62216523 3.44458694 34.64222546 5.78481828 32.6628418 8.72485352 C32.19495239 9.42494034 31.72706299 10.12502716 31.24499512 10.84632874 C30.73488892 11.59957932 30.22478271 12.3528299 29.69921875 13.12890625 C29.15890015 13.93520981 28.61858154 14.74151337 28.06188965 15.57225037 C26.88897045 17.32171083 25.71399327 19.06979288 24.53720093 20.81665039 C21.36972902 25.51870864 18.21692211 30.23058789 15.0625 34.94140625 C14.40557663 35.9216275 13.74865326 36.90184875 13.07182312 37.91177368 C5.08533215 49.83930155 -2.7963107 61.83590675 -10.67398071 73.83547974 C-23.3621004 93.16134699 -23.3621004 93.16134699 -29 101 C-29.99 100.67 -30.98 100.34 -32 100 C-29.15692511 91.09584499 -26.31354958 82.19178606 -23.4698267 73.28783798 C-22.14828494 69.14994383 -20.82683331 65.01202095 -19.50561523 60.87402344 C-13.02457188 40.57593223 -6.52739346 20.28324559 0 0 Z " fill="#9E182E" transform="translate(333,413)"/>
<path d="M0 0 C10.23 0 20.46 0 31 0 C31 3.96 31 7.92 31 12 C29.02 12.33 27.04 12.66 25 13 C25.30292969 13.74161377 25.60585937 14.48322754 25.91796875 15.24731445 C27.28403186 18.60021127 28.64210152 21.95628876 30 25.3125 C30.47695312 26.47974609 30.95390625 27.64699219 31.4453125 28.84960938 C31.89648438 29.96787109 32.34765625 31.08613281 32.8125 32.23828125 C33.23144531 33.26993408 33.65039062 34.30158691 34.08203125 35.36450195 C35 38 35 38 35 41 C35.66 41 36.32 41 37 41 C37.13535156 40.48695313 37.27070312 39.97390625 37.41015625 39.4453125 C39.95516238 30.39301524 43.52993912 21.72744079 47 13 C44.69 12.67 42.38 12.34 40 12 C40 8.04 40 4.08 40 0 C50.23 0 60.46 0 71 0 C71 3.96 71 7.92 71 12 C67.7 12 64.4 12 61 12 C60.57799316 13.29164063 60.15598633 14.58328125 59.72119141 15.9140625 C58.09609465 20.78638011 56.30682696 25.58269111 54.4609375 30.375 C54.13461334 31.22553955 53.80828918 32.0760791 53.47207642 32.95239258 C52.78903239 34.73085602 52.10496967 36.50892853 51.41992188 38.28662109 C50.36761222 41.01918407 49.32036745 43.75365329 48.2734375 46.48828125 C47.60707383 48.22147069 46.94041788 49.95454779 46.2734375 51.6875 C45.95990326 52.50718262 45.64636902 53.32686523 45.32333374 54.17138672 C43.11470678 59.88529322 43.11470678 59.88529322 42 61 C38.04 61 34.08 61 30 61 C20.595 37.24 20.595 37.24 11 13 C7.37 12.67 3.74 12.34 0 12 C0 8.04 0 4.08 0 0 Z " fill="#000000" transform="translate(1386,535)"/>
<path d="M0 0 C0.68835937 0.01353516 1.37671875 0.02707031 2.0859375 0.04101562 C3.76597001 0.0760163 5.4455935 0.12981046 7.125 0.1875 C7.125 4.4775 7.125 8.7675 7.125 13.1875 C6.18398437 13.22488281 5.24296875 13.26226562 4.2734375 13.30078125 C2.40558594 13.39939453 2.40558594 13.39939453 0.5 13.5 C-1.34464844 13.58701172 -1.34464844 13.58701172 -3.2265625 13.67578125 C-7.06796044 14.21456405 -9.58222113 15.16527793 -12.875 17.1875 C-17.45499037 24.1364509 -17.08373811 32.56966773 -17.4375 40.625 C-17.48068359 41.54732422 -17.52386719 42.46964844 -17.56835938 43.41992188 C-17.67354851 45.67564446 -17.77468836 47.93155525 -17.875 50.1875 C-13.585 50.1875 -9.295 50.1875 -4.875 50.1875 C-4.875 54.1475 -4.875 58.1075 -4.875 62.1875 C-17.415 62.1875 -29.955 62.1875 -42.875 62.1875 C-42.875 58.2275 -42.875 54.2675 -42.875 50.1875 C-38.915 50.1875 -34.955 50.1875 -30.875 50.1875 C-30.875 37.9775 -30.875 25.7675 -30.875 13.1875 C-34.835 13.1875 -38.795 13.1875 -42.875 13.1875 C-42.875 9.2275 -42.875 5.2675 -42.875 1.1875 C-35.285 1.1875 -27.695 1.1875 -19.875 1.1875 C-19.545 3.8275 -19.215 6.4675 -18.875 9.1875 C-18.17375 8.259375 -17.4725 7.33125 -16.75 6.375 C-12.43063017 0.65818699 -6.80230112 -0.25706371 0 0 Z " fill="#000000" transform="translate(1996.875,381.8125)"/>
<path d="M0 0 C0.68835937 0.01353516 1.37671875 0.02707031 2.0859375 0.04101562 C3.76597001 0.0760163 5.4455935 0.12981046 7.125 0.1875 C7.125 4.4775 7.125 8.7675 7.125 13.1875 C6.18398437 13.22488281 5.24296875 13.26226562 4.2734375 13.30078125 C2.40558594 13.39939453 2.40558594 13.39939453 0.5 13.5 C-1.34464844 13.58701172 -1.34464844 13.58701172 -3.2265625 13.67578125 C-7.06796044 14.21456405 -9.58222113 15.16527793 -12.875 17.1875 C-17.45499037 24.1364509 -17.08373811 32.56966773 -17.4375 40.625 C-17.48068359 41.54732422 -17.52386719 42.46964844 -17.56835938 43.41992188 C-17.67354851 45.67564446 -17.77468836 47.93155525 -17.875 50.1875 C-13.585 50.1875 -9.295 50.1875 -4.875 50.1875 C-4.875 54.1475 -4.875 58.1075 -4.875 62.1875 C-17.415 62.1875 -29.955 62.1875 -42.875 62.1875 C-42.875 58.2275 -42.875 54.2675 -42.875 50.1875 C-38.915 50.1875 -34.955 50.1875 -30.875 50.1875 C-30.875 37.9775 -30.875 25.7675 -30.875 13.1875 C-34.835 13.1875 -38.795 13.1875 -42.875 13.1875 C-42.875 9.2275 -42.875 5.2675 -42.875 1.1875 C-35.285 1.1875 -27.695 1.1875 -19.875 1.1875 C-19.545 3.8275 -19.215 6.4675 -18.875 9.1875 C-18.17375 8.259375 -17.4725 7.33125 -16.75 6.375 C-12.43063017 0.65818699 -6.80230112 -0.25706371 0 0 Z " fill="#000000" transform="translate(1660.875,381.8125)"/>
<path d="M0 0 C0.68835937 0.01353516 1.37671875 0.02707031 2.0859375 0.04101562 C3.76597001 0.0760163 5.4455935 0.12981046 7.125 0.1875 C7.125 4.4775 7.125 8.7675 7.125 13.1875 C6.18398437 13.22488281 5.24296875 13.26226562 4.2734375 13.30078125 C2.40558594 13.39939453 2.40558594 13.39939453 0.5 13.5 C-1.34464844 13.58701172 -1.34464844 13.58701172 -3.2265625 13.67578125 C-7.06796044 14.21456405 -9.58222113 15.16527793 -12.875 17.1875 C-17.45499037 24.1364509 -17.08373811 32.56966773 -17.4375 40.625 C-17.48068359 41.54732422 -17.52386719 42.46964844 -17.56835938 43.41992188 C-17.67354851 45.67564446 -17.77468836 47.93155525 -17.875 50.1875 C-13.585 50.1875 -9.295 50.1875 -4.875 50.1875 C-4.875 54.1475 -4.875 58.1075 -4.875 62.1875 C-17.415 62.1875 -29.955 62.1875 -42.875 62.1875 C-42.875 58.2275 -42.875 54.2675 -42.875 50.1875 C-38.915 50.1875 -34.955 50.1875 -30.875 50.1875 C-30.875 37.9775 -30.875 25.7675 -30.875 13.1875 C-34.835 13.1875 -38.795 13.1875 -42.875 13.1875 C-42.875 9.2275 -42.875 5.2675 -42.875 1.1875 C-35.285 1.1875 -27.695 1.1875 -19.875 1.1875 C-19.545 3.8275 -19.215 6.4675 -18.875 9.1875 C-18.17375 8.259375 -17.4725 7.33125 -16.75 6.375 C-12.43063017 0.65818699 -6.80230112 -0.25706371 0 0 Z " fill="#000000" transform="translate(1461.875,381.8125)"/>
<path d="M0 0 C7.59 0 15.18 0 23 0 C23 24.75 23 49.5 23 75 C26.3 75 29.6 75 33 75 C33 78.96 33 82.92 33 87 C22.11 87 11.22 87 0 87 C0 83.04 0 79.08 0 75 C3.63 75 7.26 75 11 75 C11 54.21 11 33.42 11 12 C7.37 12 3.74 12 0 12 C0 8.04 0 4.08 0 0 Z " fill="#000000" transform="translate(1435,662)"/>
<path d="M0 0 C7.59 0 15.18 0 23 0 C23 24.75 23 49.5 23 75 C26.3 75 29.6 75 33 75 C33 78.96 33 82.92 33 87 C22.11 87 11.22 87 0 87 C0 83.04 0 79.08 0 75 C3.63 75 7.26 75 11 75 C11 54.21 11 33.42 11 12 C7.37 12 3.74 12 0 12 C0 8.04 0 4.08 0 0 Z " fill="#000000" transform="translate(1398,662)"/>
<path d="M0 0 C7.59 0 15.18 0 23 0 C23 24.75 23 49.5 23 75 C26.3 75 29.6 75 33 75 C33 78.96 33 82.92 33 87 C22.11 87 11.22 87 0 87 C0 83.04 0 79.08 0 75 C3.63 75 7.26 75 11 75 C11 54.21 11 33.42 11 12 C7.37 12 3.74 12 0 12 C0 8.04 0 4.08 0 0 Z " fill="#000000" transform="translate(1528,509)"/>
<path d="M0 0 C0 6.6 0 13.2 0 20 C3.63 20 7.26 20 11 20 C11 23.96 11 27.92 11 32 C7.37 32 3.74 32 0 32 C0.495 50.315 0.495 50.315 1 69 C4.3 69 7.6 69 11 69 C11 72.96 11 76.92 11 81 C8.43685501 81.08132187 5.87631582 81.14064175 3.3125 81.1875 C2.59126953 81.21263672 1.87003906 81.23777344 1.12695312 81.26367188 C-3.47207891 81.32667231 -6.37434807 80.88572296 -10 78 C-13.5300631 72.70490534 -13.13710492 67.3550205 -13.09765625 61.19921875 C-13.0962413 60.36284378 -13.09482635 59.52646881 -13.09336853 58.66474915 C-13.08779184 56.005629 -13.07524365 53.3465945 -13.0625 50.6875 C-13.05748199 48.87955851 -13.05291961 47.0716157 -13.04882812 45.26367188 C-13.03783004 40.84241516 -13.0205815 36.42122207 -13 32 C-15.64 32 -18.28 32 -21 32 C-21 28.04 -21 24.08 -21 20 C-18.36 20 -15.72 20 -13 20 C-13.19142578 19.09121094 -13.19142578 19.09121094 -13.38671875 18.1640625 C-13.74646763 15.12722131 -13.74629931 12.98519725 -13 10 C-4.77027027 0 -4.77027027 0 0 0 Z " fill="#000000" transform="translate(1995,515)"/>
<path d="M0 0 C0 6.6 0 13.2 0 20 C3.63 20 7.26 20 11 20 C11 23.96 11 27.92 11 32 C7.37 32 3.74 32 0 32 C0.495 50.315 0.495 50.315 1 69 C4.3 69 7.6 69 11 69 C11 72.96 11 76.92 11 81 C8.43685501 81.08132187 5.87631582 81.14064175 3.3125 81.1875 C2.59126953 81.21263672 1.87003906 81.23777344 1.12695312 81.26367188 C-3.47207891 81.32667231 -6.37434807 80.88572296 -10 78 C-13.5300631 72.70490534 -13.13710492 67.3550205 -13.09765625 61.19921875 C-13.0962413 60.36284378 -13.09482635 59.52646881 -13.09336853 58.66474915 C-13.08779184 56.005629 -13.07524365 53.3465945 -13.0625 50.6875 C-13.05748199 48.87955851 -13.05291961 47.0716157 -13.04882812 45.26367188 C-13.03783004 40.84241516 -13.0205815 36.42122207 -13 32 C-15.64 32 -18.28 32 -21 32 C-21 28.04 -21 24.08 -21 20 C-18.36 20 -15.72 20 -13 20 C-13.19142578 19.09121094 -13.19142578 19.09121094 -13.38671875 18.1640625 C-13.74646763 15.12722131 -13.74629931 12.98519725 -13 10 C-4.77027027 0 -4.77027027 0 0 0 Z " fill="#000000" transform="translate(1403,363)"/>
<path d="M0 0 C5.98810538 -0.99801756 12.11864148 -1.9443264 18 0 C22.43694612 3.65601252 24.55152155 9.33973482 26.83496094 14.47900391 C28.41672097 17.90173107 30.25808626 21.15119272 32.12548828 24.42456055 C34.11826887 27.93025809 36.05345901 31.4684185 38 35 C38.33 25.43 38.66 15.86 39 6 C36.69 6 34.38 6 32 6 C32 4.02 32 2.04 32 0 C38.93 0 45.86 0 53 0 C53 1.98 53 3.96 53 6 C50.69 6 48.38 6 46 6 C46 20.85 46 35.7 46 51 C43.03 51 40.06 51 37 51 C36.68885254 50.42258057 36.37770508 49.84516113 36.05712891 49.25024414 C29.2735678 36.68260808 22.31634998 24.26564556 15 12 C14.67 22.56 14.34 33.12 14 44 C16.31 44 18.62 44 21 44 C21 45.98 21 47.96 21 50 C14.07 50 7.14 50 0 50 C0 48.02 0 46.04 0 44 C2.31 44 4.62 44 7 44 C7 31.46 7 18.92 7 6 C4.69 6 2.38 6 0 6 C0 4.02 0 2.04 0 0 Z " fill="#000000" transform="translate(1227,855)"/>
<path d="M0 0 C4.53484864 -0.09972601 9.0690432 -0.17186655 13.60473633 -0.21972656 C15.14391211 -0.23970121 16.68301338 -0.26689097 18.22192383 -0.30175781 C36.56767276 -0.70666237 36.56767276 -0.70666237 43.82763672 5.58349609 C48.99431777 10.73061256 50.88708629 17.08565789 51.09375 24.25 C50.7016714 32.71889784 49.19894904 38.65226263 43.3125 44.8125 C34.39303158 50.70271499 25.24241968 50.37452 14.9375 50.1875 C13.48503995 50.17242256 12.03256473 50.15873958 10.58007812 50.14648438 C7.05306543 50.11372861 3.52663215 50.06211664 0 50 C0 48.02 0 46.04 0 44 C2.31 44 4.62 44 7 44 C7 31.46 7 18.92 7 6 C4.69 6 2.38 6 0 6 C0 4.02 0 2.04 0 0 Z M16 6 C16 18.54 16 31.08 16 44 C27.18569258 44.33198016 27.18569258 44.33198016 36.875 39.8125 C41.6579647 33.48210555 42.88549034 27.75107298 42 20 C41.0626908 15.76394369 39.76305175 12.82845618 36.8125 9.625 C29.90263297 5.63263238 24.03873517 6 16 6 Z " fill="#000000" transform="translate(1364,855)"/>
<path d="M0 0 C3.6875 1.5 3.6875 1.5 6 3 C6.33 2.34 6.66 1.68 7 1 C11.62 1 16.24 1 21 1 C21 2.98 21 4.96 21 7 C19.02 7 17.04 7 15 7 C15.01571045 8.3003418 15.01571045 8.3003418 15.03173828 9.62695312 C15.06604813 12.87726847 15.09100923 16.12749074 15.10986328 19.37792969 C15.11985248 20.77835142 15.13344854 22.17875268 15.15087891 23.57910156 C15.36286705 41.06188825 15.36286705 41.06188825 11.3125 47.8125 C5.72330328 53.09957798 0.24724922 53.48274373 -7.1875 53.296875 C-12.00897314 52.78794172 -15.06498517 50.62334322 -19 48 C-18.06587717 45.66469294 -17.23898281 44.20357795 -15.3125 42.5625 C-12.23319047 41.81347876 -10.62804043 42.98837684 -7.86328125 44.30859375 C-4.60871008 45.51626481 -2.25909488 44.96565774 1 44 C4.02230702 41.89498129 4.02230702 41.89498129 6 39 C6.41986946 36.28836222 6.41986946 36.28836222 6 34 C5.236875 34.495 4.47375 34.99 3.6875 35.5 C-1.77702617 37.72285811 -7.43933635 38.15852475 -13.125 36.30859375 C-17.40145702 34.10584972 -19.7452331 31.16264658 -22 27 C-23.75982867 21.1890221 -23.92163807 15.32935644 -21.375 9.75 C-16.43169647 0.90501762 -9.58642507 -0.80898102 0 0 Z M-12.75 11.25 C-14.79273811 14.10983335 -14.88420692 16.52620753 -15 20 C-13.78527097 24.28727892 -12.87207433 26.36576413 -9.25 29 C-5.25707191 30.22859326 -3.01147822 30.16697548 1 29 C3.58297781 26.81008403 5.48415844 25.03168312 7 22 C7.3744411 17.03865547 7.23898133 13.88677759 4 10 C-2.8489355 5.77406107 -6.52509538 6.80363956 -12.75 11.25 Z " fill="#000000" transform="translate(1513,869)"/>
<path d="M0 0 C7.26 0 14.52 0 22 0 C22 16.17 22 32.34 22 49 C24.97 49 27.94 49 31 49 C31 52.96 31 56.92 31 61 C20.77 61 10.54 61 0 61 C0 57.04 0 53.08 0 49 C2.97 49 5.94 49 9 49 C9 36.79 9 24.58 9 12 C6.03 12 3.06 12 0 12 C0 8.04 0 4.08 0 0 Z " fill="#000000" transform="translate(2140,383)"/>
<path d="M0 0 C5.37513135 2.63870085 8.6507109 6.30142179 11.3125 11.625 C12.58347835 17.86434827 12.14883935 23.74335127 9.25 29.4375 C5.62144228 33.57002408 2.39773707 36.69589961 -3.26953125 37.203125 C-8.65716352 37.30243619 -12.30217811 36.9670454 -17 34 C-17.33 37.96 -17.66 41.92 -18 46 C-15.69 46 -13.38 46 -11 46 C-11 47.98 -11 49.96 -11 52 C-17.93 52 -24.86 52 -32 52 C-32 50.02 -32 48.04 -32 46 C-30.02 46 -28.04 46 -26 46 C-26 33.13 -26 20.26 -26 7 C-27.65 7 -29.3 7 -31 7 C-31 5.02 -31 3.04 -31 1 C-26.71 1 -22.42 1 -18 1 C-17.67 1.99 -17.34 2.98 -17 4 C-16.236875 3.34 -15.47375 2.68 -14.6875 2 C-10.16294878 -1.00920271 -5.22448684 -0.77082593 0 0 Z M-15.59375 11.3359375 C-18.18582498 14.40322623 -18.21930056 18.10575372 -18 22 C-16.32174851 25.55014738 -15.01410187 27.36961235 -11.6875 29.4375 C-8.06099111 30.19653674 -5.58424608 29.96006591 -2 29 C1.47799969 26.42930457 2.76921191 24.7789098 4 20.625 C4 16.23901235 3.24553216 13.76669911 1 10 C-5.45437043 5.74286205 -9.84548601 6.51753974 -15.59375 11.3359375 Z " fill="#000000" transform="translate(1605,869)"/>
<path d="M0 0 C13.86 0 27.72 0 42 0 C42 6.27 42 12.54 42 19 C39.69 19 37.38 19 35 19 C35 14.71 35 10.42 35 6 C31.7 6 28.4 6 25 6 C25 18.54 25 31.08 25 44 C27.31 44 29.62 44 32 44 C32 45.98 32 47.96 32 50 C25.07 50 18.14 50 11 50 C11 48.02 11 46.04 11 44 C12.98 44 14.96 44 17 44 C17 31.46 17 18.92 17 6 C14.03 6 11.06 6 8 6 C8 10.29 8 14.58 8 19 C5.36 19 2.72 19 0 19 C0 12.73 0 6.46 0 0 Z " fill="#000000" transform="translate(1303,855)"/>
<path d="M0 0 C1.54300781 -0.03867187 1.54300781 -0.03867187 3.1171875 -0.078125 C7.36304768 0.38505975 9.87772399 1.89240028 12.75073242 5.01953125 C14.45247666 7.78150236 14.47172489 9.44650688 14.41796875 12.671875 C14.40830078 13.69667969 14.39863281 14.72148438 14.38867188 15.77734375 C14.36353516 16.84082031 14.33839844 17.90429688 14.3125 19 C14.29219727 20.61841797 14.29219727 20.61841797 14.27148438 22.26953125 C14.23616584 24.9301942 14.18684199 27.58984296 14.125 30.25 C16.105 30.25 18.085 30.25 20.125 30.25 C20.125 32.23 20.125 34.21 20.125 36.25 C15.835 36.25 11.545 36.25 7.125 36.25 C6.795 35.59 6.465 34.93 6.125 34.25 C5.50625 34.745 4.8875 35.24 4.25 35.75 C-0.15599057 37.86487547 -4.06993301 38.09434085 -8.875 37.25 C-11.99386578 35.55904867 -14.26518854 33.46962291 -15.875 30.25 C-16.27271327 25.47744077 -16.34953429 23.16517328 -14.125 18.875 C-11.41113919 15.70882905 -9.57748775 14.40868369 -5.40234375 14.01953125 C-4.12037109 14.04080078 -4.12037109 14.04080078 -2.8125 14.0625 C-1.52666016 14.07216797 -1.52666016 14.07216797 -0.21484375 14.08203125 C2.125 14.25 2.125 14.25 5.125 15.25 C4.795 12.94 4.465 10.63 4.125 8.25 C-0.789188 7.04434689 -0.789188 7.04434689 -5.3125 8.75 C-9.1057404 10.97043341 -11.62218674 10.04289739 -15.875 9.25 C-12.03832381 2.15214906 -7.97085132 0.11926461 0 0 Z M-6.625 22.75 C-7.3675 23.575 -8.11 24.4 -8.875 25.25 C-8.32791273 27.78744315 -8.32791273 27.78744315 -6.875 30.25 C-3.16712408 31.59831852 -1.30003055 31.39435 2.4375 30.125 C5.34224623 28.49979209 5.34224623 28.49979209 6 25.5625 C6.04125 24.799375 6.0825 24.03625 6.125 23.25 C-0.41125094 19.5139812 -0.41125094 19.5139812 -6.625 22.75 Z " fill="#000000" transform="translate(1552.875,868.75)"/>
<path d="M0 0 C4.29 0 8.58 0 13 0 C13.33 9.24 13.66 18.48 14 28 C21.19101477 27.44744658 21.19101477 27.44744658 24.453125 26.01171875 C27.02984757 22.66067803 26.68005114 18.92358555 26.75 14.8125 C26.79447266 13.5450293 26.79447266 13.5450293 26.83984375 12.25195312 C26.9104699 10.16848178 26.95750795 8.08423494 27 6 C24.69 6 22.38 6 20 6 C20 4.02 20 2.04 20 0 C24.62 0 29.24 0 34 0 C34 9.57 34 19.14 34 29 C35.98 29 37.96 29 40 29 C40 30.98 40 32.96 40 35 C35.71 35 31.42 35 27 35 C26.67 34.34 26.34 33.68 26 33 C25.195625 33.495 24.39125 33.99 23.5625 34.5 C19.20912371 36.33300054 15.65832697 36.9179392 11 36 C7.93476133 33.76493013 6.34601831 32.32606228 5.38110352 28.62817383 C5.01228392 26.0847126 4.8857767 23.70461156 4.90234375 21.13671875 C4.90556641 20.25048828 4.90878906 19.36425781 4.91210938 18.45117188 C4.92048828 17.53916016 4.92886719 16.62714844 4.9375 15.6875 C4.94201172 14.75615234 4.94652344 13.82480469 4.95117188 12.86523438 C4.96290766 10.57675627 4.97932637 8.28841192 5 6 C3.35 6 1.7 6 0 6 C0 4.02 0 2.04 0 0 Z " fill="#000000" transform="translate(1620,870)"/>
<path d="M0 0 C4.29 0 8.58 0 13 0 C13.33 9.24 13.66 18.48 14 28 C21.19101477 27.44744658 21.19101477 27.44744658 24.453125 26.01171875 C27.02984757 22.66067803 26.68005114 18.92358555 26.75 14.8125 C26.79447266 13.5450293 26.79447266 13.5450293 26.83984375 12.25195312 C26.9104699 10.16848178 26.95750795 8.08423494 27 6 C24.69 6 22.38 6 20 6 C20 4.02 20 2.04 20 0 C24.62 0 29.24 0 34 0 C34 9.57 34 19.14 34 29 C35.98 29 37.96 29 40 29 C40 30.98 40 32.96 40 35 C35.71 35 31.42 35 27 35 C26.67 34.34 26.34 33.68 26 33 C25.195625 33.495 24.39125 33.99 23.5625 34.5 C19.20912371 36.33300054 15.65832697 36.9179392 11 36 C7.93476133 33.76493013 6.34601831 32.32606228 5.38110352 28.62817383 C5.01228392 26.0847126 4.8857767 23.70461156 4.90234375 21.13671875 C4.90556641 20.25048828 4.90878906 19.36425781 4.91210938 18.45117188 C4.92048828 17.53916016 4.92886719 16.62714844 4.9375 15.6875 C4.94201172 14.75615234 4.94652344 13.82480469 4.95117188 12.86523438 C4.96290766 10.57675627 4.97932637 8.28841192 5 6 C3.35 6 1.7 6 0 6 C0 4.02 0 2.04 0 0 Z " fill="#000000" transform="translate(1419,870)"/>
<path d="M0 0 C6.27 0 12.54 0 19 0 C19 1.98 19 3.96 19 6 C17.35 6 15.7 6 14 6 C14 18.54 14 31.08 14 44 C15.65 44 17.3 44 19 44 C19 45.98 19 47.96 19 50 C12.73 50 6.46 50 0 50 C0 48.02 0 46.04 0 44 C1.65 44 3.3 44 5 44 C5 31.46 5 18.92 5 6 C3.35 6 1.7 6 0 6 C0 4.02 0 2.04 0 0 Z " fill="#000000" transform="translate(1282,855)"/>
<path d="M0 0 C0 2.31 0 4.62 0 7 C-0.92232422 7.16435547 -0.92232422 7.16435547 -1.86328125 7.33203125 C-3.07564453 7.56986328 -3.07564453 7.56986328 -4.3125 7.8125 C-5.51326172 8.03873047 -5.51326172 8.03873047 -6.73828125 8.26953125 C-9.29039274 9.09378833 -10.35316788 9.90725641 -12 12 C-13.18695553 15.56086658 -13.35095418 18.97331024 -13.5625 22.6875 C-13.60568359 23.38939453 -13.64886719 24.09128906 -13.69335938 24.81445312 C-13.7991736 26.54275206 -13.90006581 28.2713511 -14 30 C-11.36 30 -8.72 30 -6 30 C-6 31.98 -6 33.96 -6 36 C-13.59 36 -21.18 36 -29 36 C-29 34.02 -29 32.04 -29 30 C-26.69 30 -24.38 30 -22 30 C-22 22.41 -22 14.82 -22 7 C-24.31 7 -26.62 7 -29 7 C-29 5.02 -29 3.04 -29 1 C-24.38 1 -19.76 1 -15 1 C-14.67 1.99 -14.34 2.98 -14 4 C-13.175 3.34 -12.35 2.68 -11.5 2 C-7.65507519 -0.61234126 -4.54344936 -0.31334134 0 0 Z " fill="#000000" transform="translate(1691,869)"/>
<path d="M0 0 C0 2.31 0 4.62 0 7 C-0.92232422 7.16435547 -0.92232422 7.16435547 -1.86328125 7.33203125 C-3.07564453 7.56986328 -3.07564453 7.56986328 -4.3125 7.8125 C-5.51326172 8.03873047 -5.51326172 8.03873047 -6.73828125 8.26953125 C-9.29039274 9.09378833 -10.35316788 9.90725641 -12 12 C-13.18695553 15.56086658 -13.35095418 18.97331024 -13.5625 22.6875 C-13.60568359 23.38939453 -13.64886719 24.09128906 -13.69335938 24.81445312 C-13.7991736 26.54275206 -13.90006581 28.2713511 -14 30 C-11.36 30 -8.72 30 -6 30 C-6 31.98 -6 33.96 -6 36 C-13.59 36 -21.18 36 -29 36 C-29 34.02 -29 32.04 -29 30 C-26.69 30 -24.38 30 -22 30 C-22 22.41 -22 14.82 -22 7 C-24.31 7 -26.62 7 -29 7 C-29 5.02 -29 3.04 -29 1 C-24.38 1 -19.76 1 -15 1 C-14.67 1.99 -14.34 2.98 -14 4 C-13.175 3.34 -12.35 2.68 -11.5 2 C-7.65507519 -0.61234126 -4.54344936 -0.31334134 0 0 Z " fill="#000000" transform="translate(1490,869)"/>
<path d="M0 0 C2.48669495 1.52410336 2.87204541 2.6526947 3.875 5.375 C4.04320282 8.90725918 3.26091374 10.30149005 1 13 C-2.32340646 14.66170323 -4.10914026 15.20246812 -7.75 14.375 C-10.39208506 12.76039247 -11.17296383 11.9773302 -12 9 C-11.81416141 5.96463635 -11.44051393 3.77737753 -9.9375 1.125 C-6.77218952 -0.71292222 -3.56023579 -0.54258291 0 0 Z " fill="#000000" transform="translate(2159,356)"/>
</svg>
